<?xml version="1.0" encoding="utf-8"?>
<!-- Generator: Adobe Illustrator 18.1.1, SVG Export Plug-In . SVG Version: 6.00 Build 0)  -->
<svg version="1.1" id="Layer_1" xmlns="http://www.w3.org/2000/svg" xmlns:xlink="http://www.w3.org/1999/xlink" x="0px" y="0px"
	 viewBox="0 0 209 156" enable-background="new 0 0 209 156" xml:space="preserve">
<g>
	<g id="EN_2_">
		<g>
			<path fill="#878D91" d="M33,121.6h-3.1v4.2h3.6v1.8h-5.7v-13.3h5.5v1.8h-3.3v3.6H33V121.6z"/>
			<path fill="#878D91" d="M42,124.9c0,1,0,2,0.1,2.8h-1.8l-0.1-1h0c-0.4,0.6-1.1,1.2-2.1,1.2c-1.8,0-2.5-1.3-2.5-3.8v-5.9h2.1v5.7
				c0,1.4,0.2,2.3,1.1,2.3c0.6,0,1-0.6,1.1-0.9c0.1-0.2,0.1-0.5,0.1-0.8v-6.2H42V124.9z"/>
			<path fill="#878D91" d="M44.7,120.8c0-0.9,0-1.9-0.1-2.7h1.8l0.1,1.4h0.1c0.4-1,1.2-1.6,1.9-1.6c0.2,0,0.3,0,0.5,0v2.1
				c-0.1,0-0.3,0-0.5,0c-0.7,0-1.5,0.6-1.7,1.7c0,0.2-0.1,0.6-0.1,0.9v5.1h-2.1V120.8z"/>
			<path fill="#878D91" d="M54,127.8c-2,0-3.4-1.7-3.4-4.9c0-3.5,1.7-5,3.5-5c2,0,3.4,1.8,3.4,4.9C57.4,126.7,55.4,127.8,54,127.8
				L54,127.8z M54,126.2c1,0,1.3-1.9,1.3-3.3c0-1.4-0.2-3.3-1.3-3.3c-1.1,0-1.4,1.9-1.4,3.3C52.6,124.5,52.9,126.2,54,126.2
				L54,126.2z"/>
			<path fill="#878D91" d="M59.7,121.1c0-1.3,0-2.2-0.1-3h1.8l0.1,1.2h0c0.5-0.9,1.2-1.3,2-1.3c1.9,0,2.9,2,2.9,4.9
				c0,3.5-1.5,5-3.1,5c-0.8,0-1.4-0.5-1.6-1h0v4.6h-2.1V121.1z M61.8,124.2c0,0.3,0,0.6,0.1,0.8c0.3,0.9,0.7,1.1,1.1,1.1
				c1.1,0,1.4-1.5,1.4-3.2c0-1.9-0.5-3.2-1.4-3.2c-0.5,0-1,0.6-1.1,1.2c-0.1,0.2-0.1,0.5-0.1,0.7V124.2z"/>
			<path fill="#878D91" d="M70.6,123.5c0,2.1,1,2.7,2.1,2.7c0.7,0,1.3-0.2,1.7-0.3l0.3,1.5c-0.6,0.3-1.5,0.5-2.4,0.5
				c-2.5,0-3.8-1.8-3.8-4.8c0-3.2,1.5-5.1,3.6-5.1c2,0,3,1.8,3,4.4c0,0.6,0,0.9-0.1,1.1H70.6z M73.2,122c0-1.5-0.5-2.4-1.2-2.4
				c-0.9,0-1.3,1.3-1.4,2.4H73.2z"/>
			<path fill="#878D91" d="M83.3,125.5c0,0.7,0,1.6,0.1,2.2h-1.9l-0.1-1h0c-0.5,0.7-1.2,1.1-2,1.1c-1.4,0-2.4-1.1-2.4-2.8
				c0-2.5,2.1-3.5,4.3-3.5v-0.3c0-1-0.4-1.7-1.4-1.7c-0.7,0-1.3,0.2-1.8,0.5l-0.4-1.4c0.5-0.3,1.5-0.7,2.6-0.7
				c2.5,0,3.1,1.7,3.1,3.7V125.5z M81.2,122.9c-0.8,0-2.3,0.2-2.3,1.9c0,1.1,0.6,1.5,1,1.5c0.5,0,1-0.4,1.2-1.1
				c0-0.1,0.1-0.3,0.1-0.5V122.9z"/>
			<path fill="#878D91" d="M86,120.8c0-1.1,0-1.8-0.1-2.7h1.8l0.1,1.1h0c0.5-0.8,1.3-1.3,2.3-1.3c1.6,0,2.5,1.2,2.5,3.5v6.3h-2.1
				v-6.1c0-1-0.2-1.9-1.1-1.9c-0.5,0-1,0.4-1.2,1.2c-0.1,0.2-0.1,0.5-0.1,0.9v5.9H86V120.8z"/>
			<path fill="#878D91" d="M99,114.6c0.7-0.2,1.5-0.3,2.5-0.3c1.4,0,2.5,0.3,3.3,1c0.7,0.7,1.1,1.7,1.1,2.8c0,1.3-0.4,2.2-1,3
				c-0.8,0.9-2.1,1.4-3.2,1.4c-0.2,0-0.4,0-0.6,0v5.2H99V114.6z M101.1,120.8c0.2,0,0.3,0,0.5,0c1.4,0,2.1-0.9,2.1-2.5
				c0-1.2-0.5-2.3-1.9-2.3c-0.3,0-0.6,0-0.7,0.1V120.8z"/>
			<path fill="#878D91" d="M113.7,125.5c0,0.7,0,1.6,0.1,2.2H112l-0.1-1h0c-0.5,0.7-1.2,1.1-2,1.1c-1.4,0-2.4-1.1-2.4-2.8
				c0-2.5,2.1-3.5,4.3-3.5v-0.3c0-1-0.4-1.7-1.4-1.7c-0.7,0-1.3,0.2-1.8,0.5l-0.4-1.4c0.5-0.3,1.5-0.7,2.6-0.7
				c2.5,0,3.1,1.7,3.1,3.7V125.5z M111.7,122.9c-0.8,0-2.3,0.2-2.3,1.9c0,1.1,0.6,1.5,1,1.5c0.5,0,1-0.4,1.2-1.1
				c0-0.1,0.1-0.3,0.1-0.5V122.9z"/>
			<path fill="#878D91" d="M116.4,120.8c0-0.9,0-1.9-0.1-2.7h1.8l0.1,1.4h0.1c0.4-1,1.2-1.6,2-1.6c0.2,0,0.3,0,0.4,0v2.1
				c-0.1,0-0.3,0-0.4,0c-0.7,0-1.5,0.6-1.7,1.7c0,0.2-0.1,0.6-0.1,0.9v5.1h-2.1V120.8z"/>
			<path fill="#878D91" d="M122.6,114.1h2.1v13.6h-2.1V114.1z"/>
			<path fill="#878D91" d="M128.5,116.8c-0.6,0-1.1-0.5-1.1-1.2c0-0.7,0.5-1.2,1.1-1.2c0.7,0,1.1,0.5,1.1,1.2
				C129.6,116.3,129.2,116.8,128.5,116.8L128.5,116.8z M127.5,127.7v-9.6h2.1v9.6H127.5z"/>
			<path fill="#878D91" d="M138.1,125.5c0,0.7,0,1.6,0.1,2.2h-1.9l-0.1-1h0c-0.5,0.7-1.2,1.1-2,1.1c-1.4,0-2.4-1.1-2.4-2.8
				c0-2.5,2.1-3.5,4.3-3.5v-0.3c0-1-0.4-1.7-1.4-1.7c-0.7,0-1.3,0.2-1.8,0.5l-0.4-1.4c0.5-0.3,1.5-0.7,2.6-0.7
				c2.5,0,3.1,1.7,3.1,3.7V125.5z M136,122.9c-0.8,0-2.3,0.2-2.3,1.9c0,1.1,0.6,1.5,1,1.5c0.5,0,1-0.4,1.2-1.1
				c0-0.1,0.1-0.3,0.1-0.5V122.9z"/>
			<path fill="#878D91" d="M140.8,120.8c0-1.1,0-1.8-0.1-2.7h1.8l0.1,1.1h0c0.4-0.7,1.2-1.3,2.2-1.3c1,0,1.7,0.5,2,1.4h0
				c0.2-0.4,0.6-0.8,0.9-1c0.4-0.2,0.8-0.4,1.3-0.4c1.5,0,2.4,1.2,2.4,3.5v6.2h-2.1v-5.8c0-1.2-0.2-2.2-1.1-2.2
				c-0.6,0-1,0.4-1.2,1.1c-0.1,0.2-0.1,0.5-0.1,0.8v6.1h-2.1v-6.1c0-0.8-0.1-1.8-1.1-1.8c-0.5,0-1,0.4-1.2,1.2
				c0,0.2-0.1,0.5-0.1,0.8v6.1h-2.1V120.8z"/>
			<path fill="#878D91" d="M156,123.5c0,2.1,1,2.7,2.1,2.7c0.7,0,1.3-0.2,1.7-0.3l0.3,1.5c-0.6,0.3-1.5,0.5-2.4,0.5
				c-2.5,0-3.8-1.8-3.8-4.8c0-3.2,1.5-5.1,3.6-5.1c2,0,3,1.8,3,4.4c0,0.6,0,0.9-0.1,1.1H156z M158.6,122c0-1.5-0.5-2.4-1.2-2.4
				c-0.9,0-1.3,1.3-1.4,2.4H158.6z"/>
			<path fill="#878D91" d="M162.9,120.8c0-1.1,0-1.8-0.1-2.7h1.8l0.1,1.1h0c0.5-0.8,1.3-1.3,2.3-1.3c1.6,0,2.5,1.2,2.5,3.5v6.3h-2.1
				v-6.1c0-1-0.2-1.9-1.1-1.9c-0.5,0-1,0.4-1.2,1.2c-0.1,0.2-0.1,0.5-0.1,0.9v5.9h-2.1V120.8z"/>
			<path fill="#878D91" d="M174.6,115.7v2.4h1.8v1.5h-1.8v5c0,1.2,0.5,1.5,1,1.5c0.2,0,0.4,0,0.6-0.1l0,1.6
				c-0.3,0.1-0.8,0.2-1.4,0.2c-0.7,0-1.3-0.2-1.7-0.6c-0.5-0.5-0.7-1.2-0.7-2.6v-5h-1.1v-1.5h1.1v-1.7L174.6,115.7z"/>
		</g>
	</g>
	<g id="mute_1_">
		<g id="flag_1_">
			<rect x="110.5" y="61.8" fill="#164194" width="66" height="44"/>
			<g>
				<polygon fill="#FFED00" points="143.4,66.5 144,68.5 146.1,68.5 144.4,69.7 145.1,71.6 143.4,70.4 141.8,71.6 142.4,69.7 
					140.7,68.5 142.8,68.5 				"/>
				<polygon fill="#FFED00" points="143.4,95.9 144,97.9 146.1,97.8 144.4,99.1 145.1,101 143.4,99.8 141.8,101 142.4,99.1 
					140.7,97.8 142.8,97.9 				"/>
				<polygon fill="#FFED00" points="136.1,68.5 136.7,70.5 138.8,70.4 137.1,71.6 137.8,73.6 136.1,72.4 134.5,73.6 135.1,71.6 
					133.4,70.4 135.5,70.5 				"/>
				<polygon fill="#FFED00" points="130.7,73.9 131.4,75.8 133.4,75.8 131.8,77 132.4,79 130.7,77.8 129.1,79 129.7,77 128.1,75.8 
					130.1,75.8 				"/>
				<polygon fill="#FFED00" points="128.8,81.2 129.4,83.2 131.4,83.2 129.8,84.4 130.4,86.3 128.8,85.1 127.1,86.3 127.8,84.4 
					126.1,83.2 128.1,83.2 				"/>
				<polygon fill="#FFED00" points="130.7,88.5 131.3,90.5 133.4,90.5 131.7,91.7 132.4,93.6 130.7,92.4 129.1,93.6 129.7,91.7 
					128,90.5 130.1,90.5 				"/>
				<polygon fill="#FFED00" points="136.1,93.9 136.7,95.9 138.8,95.9 137.1,97.1 137.8,99 136.1,97.8 134.5,99 135.1,97.1 
					133.4,95.9 135.5,95.9 				"/>
				<polygon fill="#FFED00" points="150.7,68.5 150.1,70.5 148.1,70.4 149.7,71.6 149.1,73.6 150.7,72.4 152.4,73.6 151.7,71.6 
					153.4,70.4 151.4,70.5 				"/>
				<polygon fill="#FFED00" points="156.1,73.9 155.5,75.8 153.4,75.8 155.1,77 154.5,79 156.1,77.8 157.8,79 157.1,77 158.8,75.8 
					156.7,75.8 				"/>
				<polygon fill="#FFED00" points="158.1,81.2 157.5,83.2 155.4,83.2 157.1,84.4 156.4,86.3 158.1,85.1 159.7,86.3 159.1,84.4 
					160.8,83.2 158.7,83.2 				"/>
				<polygon fill="#FFED00" points="156.1,88.5 155.5,90.5 153.5,90.5 155.1,91.7 154.5,93.6 156.1,92.4 157.8,93.6 157.1,91.7 
					158.8,90.5 156.8,90.5 				"/>
				<polygon fill="#FFED00" points="150.7,93.9 150.1,95.9 148.1,95.9 149.7,97.1 149.1,99 150.7,97.8 152.4,99 151.7,97.1 
					153.4,95.9 151.4,95.9 				"/>
			</g>
		</g>
		<g id="hc_2_">
			<path fill="#878D91" d="M121,53v-3.6c-1.3-1.1-6.6-3.4-9.8-4.1v2.6C114.8,48.7,119.4,51.4,121,53z"/>
			<path fill="#878D91" d="M123.6,58.4h3.1c0.1-4.6-3.6-7.4-4.2-7.8v4.4C123.8,56.9,123.6,58.4,123.6,58.4z"/>
			<path fill="#878D91" d="M131.5,49.2v4c1.6,1.6,2.5,2.9,3.3,5.3h3.3C137.2,54.8,135,51.8,131.5,49.2z"/>
			<path fill="#878D91" d="M129.4,51.3v-3.6c-3-2-9.1-4.7-15.1-5.9v2.6C120.1,45.8,126.3,48.8,129.4,51.3z"/>
			<path fill="#878D91" d="M138,49.2v-3.5c-3.7-2.3-11.2-5.5-20.1-7.4v2.5C126.4,42.9,132.9,45.8,138,49.2z"/>
			<path fill="#878D91" d="M140.3,47.2c0,0,0,3.8,0,3.8c2.3,1.9,4.6,4.3,6.1,7.5h3.5C148.7,54.4,144.2,49.6,140.3,47.2z"/>
			<path fill="#878D91" d="M147.5,47v-3.5c-7-4.1-17.5-7.8-25.8-9.2v2.5C131.1,38.7,142.3,43.3,147.5,47z"/>
			<path fill="#878D91" d="M158.8,58.4h3.7c-2.7-6.4-9.3-11.4-12.4-13.4v3.7C154.8,52.3,156.5,54.8,158.8,58.4z"/>
			<path fill="#878D91" d="M156.8,44.8v-3.6c-5.7-3.5-17.1-8.6-31.1-11.3v2.7C136.4,34.6,149.9,39.9,156.8,44.8z"/>
			<path fill="#878D91" d="M170.8,58.4h4c-4.5-7.6-9.6-12-15.1-15.6v3.8C163.8,49.6,168.2,53.9,170.8,58.4z"/>
			<path fill="#878D91" d="M108.5,47.1v-2.4c-3.6-0.7-10-1.1-12.8-0.8v1.9C99.9,45.6,106.1,46.4,108.5,47.1z"/>
			<path fill="#878D91" d="M92.8,46v-1.8c-6.7,0.7-11.4,3-14,5v1.5C82.6,47.6,87.9,46.4,92.8,46z"/>
			<path fill="#878D91" d="M77.2,52.3l0-1.8c-6.2,7,1.6,12.8,2.4,13.3v-2.4C75.3,58.3,75.8,54.3,77.2,52.3z"/>
			<path fill="#878D91" d="M82,63v2.6c4.2,2.3,8.4,3.8,14.5,4.9l0-3.5C92.3,66.7,86.7,65.6,82,63z"/>
			<path fill="#878D91" d="M98.5,67.1l0,3.6c3.5,0.3,6.9,0.4,8.7,0.4V67C104.4,67.2,99.5,67.2,98.5,67.1z"/>
			<path fill="#878D91" d="M111.7,43.8v-2.5c-4.3-0.9-12.7-1.5-17.7-1.1v1.9C100.6,41.9,107.1,42.8,111.7,43.8z"/>
			<path fill="#878D91" d="M94.2,77.4v-3.9c-6.5-0.6-16.4-2.8-22.5-7.3v2.6C78.4,73.9,89.1,76.7,94.2,77.4z"/>
			<path fill="#878D91" d="M69.3,66.8v-2.5c-5.5-5.2-4.4-10.5-0.9-13.9v-1.6C61.6,55,64.1,62.4,69.3,66.8z"/>
			<path fill="#878D91" d="M96.4,73.8v4c3.9,0.6,7.3,0.7,10.7,0.7v-4.4C103.5,74.1,98,73.9,96.4,73.8z"/>
			<path fill="#878D91" d="M70.3,47.3v1.5c5.9-4.4,14.7-6.1,20.9-6.5v-1.8C83.5,41,74.7,43.9,70.3,47.3z"/>
			<path fill="#878D91" d="M60.7,69.2v2.8c8.4,7.6,22.3,11.7,30.7,13.2v-4.3C83.7,80,69.7,77,60.7,69.2z"/>
			<path fill="#878D91" d="M115.3,40.2v-2.4c-5.4-1-14.9-2.1-23.7-1.3v1.9C99,37.9,109.5,38.9,115.3,40.2z"/>
			<path fill="#878D91" d="M93.9,81.1v4.4c3.7,0.7,9.9,1.1,13.2,1.2v-5C105.1,81.9,96.4,81.4,93.9,81.1z"/>
			<path fill="#878D91" d="M88.7,38.6v-1.9c-6.6,0.6-18.3,2.9-26.1,8.2v1.5C70.3,41.2,82,39,88.7,38.6z"/>
			<path fill="#878D91" d="M60.6,47.9v-1.5c-3.6,2.7-12.3,11.7-2.2,23.2v-2.8C56.1,64.3,50.7,56.2,60.6,47.9z"/>
			<path fill="#878D91" d="M119.1,36.2v-2.5c-6.6-1.3-19.5-2.4-29.6-1.4v1.9C98.4,33.5,111.1,34.5,119.1,36.2z"/>
			<path fill="#878D91" d="M91.1,88.7v4.7c5,1,11.2,1.6,16,1.7v-5.3C101.3,89.7,96.4,89.5,91.1,88.7z"/>
			<path fill="#878D91" d="M88.4,93v-4.6c-13.8-2-29.1-7-38.5-16.3v2.9C61.1,86.3,79.6,91.4,88.4,93z"/>
			<path fill="#878D91" d="M55,42.2v1.5c9.3-5.9,21.9-8.4,31.6-9.3v-1.9C77.3,33.4,63.7,36.5,55,42.2z"/>
			<path fill="#878D91" d="M47.5,72.3v-3c-3.6-4.9-7.2-14.7,5.3-24v-1.5C38.8,53.8,42.3,66.1,47.5,72.3z"/>
			<path fill="#878D91" d="M37.8,74.2v3.3C48.4,91.2,70.4,99.3,84,102.2v-5C69.7,94.7,47.9,87.7,37.8,74.2z"/>
			<path fill="#878D91" d="M123.1,31.9v-2.6c-6.5-1.4-22.4-3.1-36.4-1.7v2C98.4,28.6,113.2,29.8,123.1,31.9z"/>
			<path fill="#878D91" d="M83.9,29.8v-1.9c-12.1,1.2-27.2,5.4-36,11.2v1.5C59,33.8,73.7,30.8,83.9,29.8z"/>
			<path fill="#878D91" d="M87,97.7v5.2c3.1,0.8,14.9,2.5,20.1,2.5v-5.9C99.2,99.2,91,98.3,87,97.7z"/>
			<path fill="#878D91" d="M45.6,42.2v-1.6C42,42.9,25.2,55.6,35.5,73.8v-3.7C29,56.7,38.9,46.9,45.6,42.2z"/>
		</g>
	</g>
</g>
</svg>
