<?xml version="1.0" encoding="utf-8"?>
<!-- Generator: Adobe Illustrator 18.1.1, SVG Export Plug-In . SVG Version: 6.00 Build 0)  -->
<svg version="1.1" id="Layer_1" xmlns="http://www.w3.org/2000/svg" xmlns:xlink="http://www.w3.org/1999/xlink" x="0px" y="0px"
	 viewBox="0 0 211 156" enable-background="new 0 0 211 156" xml:space="preserve">
<g>
	<path fill="#C7C6C5" d="M43.7,81.6c0.3,0,0.6,0.1,0.9,0.1c0.3,0,0.5,0.1,0.8,0.1c0.6,0.1,1.1,0.1,1.7,0.2c0.9,0.1,1.9,0.2,2.9,0.3
		c0.2,0,0.3,0,0.5,0.1c0.8,0.1,1.7,0.2,2.6,0.2c0.3,0,0.7,0.1,1,0.1c0.2,0,0.4,0,0.6,0.1c0.4,0,0.8,0.1,1.3,0.1c0.1,0,0.3,0,0.4,0
		c0.5,0,1,0.1,1.5,0.1c0.6,0,1.3,0.1,1.9,0.1c0.7,0,1.3,0.1,2,0.1c1.3,0.1,2.7,0.1,4,0.2c0.4,0,0.8,0,1.1,0c0.3,0,0.6,0,0.9,0
		c0.3,0,0.6,0,0.9,0c0.4,0,0.7,0,1.1,0c0.2,0,0.5,0,0.7,0c0.2,0-0.3,0,0.3,0v-3.7c-1.4,0-1.1,0-1.3,0c-0.2,0-1.6,0-1.9,0
		c-0.2,0-1.6,0-1.8,0c-0.4,0-3.3,0-3.7,0c-0.4,0-3.2,0-3.6-0.1c-0.2,0-1.5,0-1.6,0c-0.2,0-1.4,0-1.6,0c-0.4,0-3-0.1-3.3-0.1
		c-0.4,0-2.8-0.1-3.1-0.1c-0.2,0-1.2,0-1.4-0.1c-0.2,0-1.2,0-1.3-0.1c-0.6-0.1-4.6-0.2-5.1-0.2c-0.3,0-1.8-0.1-2-0.1
		c-0.1,0-0.7,0-0.8-0.1c-0.1,0-0.6,0-0.7-0.1c0,0,0,0,0,0c0.2,0.7,0.3,1.3,0.5,2c0.2,0,0.4,0.1,0.6,0.1c1.1,0.2,2.3,0.3,3.7,0.5
		C42.7,81.5,43.2,81.6,43.7,81.6 M40,64.3c0.9,0.1,1.9,0.2,3,0.3c1,0.1,2.1,0.2,3.3,0.3c1.1,0.1,2.3,0.2,3.5,0.3
		c0.6,0,1.2,0.1,1.8,0.1c0.6,0,1.2,0.1,1.9,0.1c1.3,0.1,2.5,0.2,3.9,0.2c2.6,0.2,5.3,0.2,8.1,0.4c0.7,0,1.4,0,2.1,0.1
		c0.7,0,1.4,0,2.1,0c0.5,0,0.2,0,1.3,0v-4.7H36.5c-0.1,0.9-0.2,1.6-0.2,2.5c0.3,0,0.7,0.1,1,0.1C38.1,64.1,39,64.2,40,64.3
		 M109.6,56.3c0-0.2-0.1-0.5-0.1-0.7c-0.2-0.7-0.3-1.3-0.4-1.9c-0.7-0.1-1.4-0.1-2.1-0.2c-0.9-0.1-1.9-0.2-3-0.3
		c-1-0.1-2.1-0.2-3.2-0.3c-1.1-0.1-2.3-0.2-3.5-0.3c-0.6,0-1.2-0.1-1.8-0.1c-0.6,0-1.2-0.1-1.9-0.1c-1.3-0.1-2.5-0.2-3.9-0.2
		c-2.6-0.2-5.3-0.2-8.1-0.4c-0.7,0-1.4,0-2.1-0.1c-0.7,0-1.4,0-2.1,0c-1.3,0-2.6,0-4-0.1c-1.3,0-2.6,0-4,0.1c-0.7,0-1.4,0-2.1,0
		c-0.7,0-1.4,0-2.1,0.1c-2.8,0.1-5.5,0.2-8.1,0.4c-1.3,0.1-2.6,0.1-3.9,0.2c-0.6,0-1.3,0.1-1.9,0.1c-0.6,0-1.2,0.1-1.8,0.1
		c-1.2,0.1-2.4,0.2-3.5,0.3C45.1,52.9,44,53,43,53.1c-1,0.1-2,0.2-3,0.3c-0.7,0.1-1.4,0.1-2.1,0.2c-0.1,0.7-0.3,1.2-0.5,1.9
		c-0.1,0.2-0.1,0.5-0.1,0.7h36.2H109.6z M46.1,89.3c0.3,0,0.5,0.1,0.8,0.1c0.2,0,0.5,0.1,0.7,0.1c0.5,0.1,1,0.1,1.6,0.2
		c0.9,0.1,1.7,0.2,2.7,0.3c0.2,0,0.3,0,0.5,0.1c0.8,0.1,1.6,0.2,2.4,0.2c0.3,0,0.6,0.1,1,0.1c0.2,0,0.4,0,0.5,0.1
		c0.4,0,0.8,0.1,1.2,0.1c0.1,0,0.2,0,0.4,0c0.5,0,0.9,0.1,1.4,0.1c0.6,0,1.2,0.1,1.8,0.1c0.6,0,1.2,0.1,1.9,0.1
		c1.2,0.1,2.5,0.1,3.7,0.2c0.4,0,0.7,0,1.1,0c0.3,0,0.6,0,0.8,0c0.3,0,0.6,0,0.9,0c0.3,0,0.7,0,1,0c0.1,0,0.3,0,0.4,0v-3.1
		c-0.9,0-0.4,0-0.6,0c-0.3,0-1.4,0-1.8,0c-0.3,0-1.4,0-1.7,0c-0.6,0-2.9,0-3.5-0.1c-0.6,0-2.8-0.1-3.4-0.1c-0.3,0-1.3,0-1.6-0.1
		c-0.3,0-1.3,0-1.5-0.1c-0.6,0-2.6-0.1-3.2-0.1c-0.5-0.1-2.4-0.1-3-0.2c-0.3,0-1.1-0.1-1.4-0.1c-0.2,0-1.1-0.1-1.3-0.1
		c-0.9-0.1-4-0.2-4.8-0.4c-0.4-0.1-1.6-0.1-2-0.2c-0.2,0-0.6,0-0.8-0.1c-0.1,0-0.2,0-0.3,0c0.3,0.6,0.5,1.2,0.8,1.8
		c0.2,0,0.4,0.1,0.6,0.1c1,0.2,2.1,0.3,3.4,0.5C45.2,89.1,45.7,89.2,46.1,89.3 M70.7,102.8c-0.9,0-0.4,0-0.8,0c-0.5,0-1.1,0-1.6-0.1
		c-1,0-2.1-0.1-3.1-0.1c-1-0.1-2-0.1-3-0.2c-0.5,0-1-0.1-1.5-0.1c-0.5,0-1-0.1-1.4-0.1c-1-0.1-1.9-0.2-2.8-0.2
		c-0.9-0.1-1.8-0.2-2.6-0.3c-0.4,0-0.8-0.1-1.3-0.1c-0.4,0-0.8-0.1-1.2-0.2c-0.7-0.1-1.4-0.2-2.1-0.3c0.6,0.6,1.1,1.2,1.6,1.7
		c0,0,0.1,0,0.1,0c0.4,0.1,0.8,0.1,1.2,0.2c0.4,0.1,0.8,0.1,1.3,0.2c0.9,0.1,1.8,0.2,2.7,0.4c0.9,0.1,1.9,0.2,2.8,0.3
		c0.5,0.1,1,0.1,1.5,0.2c0.5,0.1,1,0.1,1.5,0.1c1,0.1,2,0.2,3.1,0.2c1,0.1,2.1,0.1,3.2,0.2c0.5,0,1.1,0,1.6,0.1c0.4,0,0,0.1,0.9,0.1
		V102.8z M51.4,96.8c0.8,0.1,1.6,0.2,2.5,0.3c0.1,0,0.3,0,0.4,0.1c0.7,0.1,1.5,0.2,2.2,0.2c0.3,0,0.6,0.1,0.9,0.1c0.2,0,0.3,0,0.5,0
		c0.4,0,0.7,0.1,1.1,0.1c0.1,0,0.2,0,0.3,0c0.4,0,0.9,0.1,1.3,0.1c0.5,0,1.1,0.1,1.6,0.1c0.6,0,1.1,0.1,1.7,0.1
		c1.1,0.1,2.3,0.1,3.5,0.2c0.3,0,0.7,0,1,0c0.3,0,0.5,0,0.8,0c0.3,0,0.5,0,0.8,0c0.3,0,0.5,0,0.8,0v-2.5c-0.2,0-0.1,0,0,0
		c-0.4,0-1.2,0-1.6,0c-0.4,0-1.2,0-1.7,0c-0.8,0-2.5-0.1-3.3-0.1c-0.8,0-2.4-0.1-3.2-0.1c-0.4,0-1.1,0-1.5-0.1
		c-0.4,0-1.1-0.1-1.5-0.1c-0.8-0.1-2.3-0.1-3-0.2c-0.7-0.1-2.1-0.2-2.8-0.2c-0.3,0-1-0.1-1.3-0.1c-0.3,0-0.9-0.1-1.2-0.1
		c-1.3-0.2-3.5-0.3-4.5-0.5c-0.3-0.1-0.8-0.1-1.2-0.1c0.4,0.6,0.8,1.2,1.1,1.7c0.7,0.1,1.5,0.3,2.4,0.4c0.4,0.1,0.8,0.1,1.2,0.2
		c0.2,0,0.5,0.1,0.7,0.1c0.2,0,0.4,0.1,0.7,0.1C50.4,96.6,50.9,96.7,51.4,96.8 M41.3,73.2c0.3,0,0.6,0.1,1,0.1
		c0.3,0,0.6,0.1,0.9,0.1c0.6,0.1,1.3,0.1,1.9,0.2c1,0.1,2,0.2,3.1,0.3c0.2,0,0.4,0,0.5,0.1c0.9,0.1,1.8,0.2,2.7,0.2
		c0.4,0,0.7,0.1,1.1,0.1c0.2,0,0.4,0,0.6,0.1c0.4,0,0.9,0.1,1.3,0.1c0.1,0,0.3,0,0.4,0c0.5,0,1.1,0.1,1.6,0.1c0.7,0,1.3,0.1,2,0.1
		c0.7,0,1.4,0.1,2.1,0.1c1.4,0.1,2.8,0.1,4.3,0.2c0.4,0,0.8,0,1.2,0c0.3,0,0.6,0,1,0c0.3,0,0.7,0,1,0c0.4,0,0.8,0,1.2,0
		c0.3,0,0.5,0,0.8,0c0.4,0-0.1,0,0.8,0v-4.3c-1.7,0-1.9,0-2,0c-0.1,0-1.8,0-1.9,0c-0.1,0-1.8,0-1.9,0c-0.2,0-3.7,0-3.9,0
		c-0.2,0-3.5,0-3.7,0c-0.1,0-1.6,0-1.7,0c-0.1,0-1.6,0-1.6,0c-0.2,0-3.3,0-3.5,0c-0.2,0-3.1,0-3.3-0.1c-0.1,0-1.4,0-1.4,0
		c-0.1,0-1.3,0-1.4,0c-0.3,0-5.1-0.1-5.3-0.1c-0.1,0-2,0-2.1-0.1c0,0-0.5,0-0.7,0c0,0.7,0.1,1.5,0.2,2.2c1,0.1,2.1,0.3,3.3,0.4
		C40.2,73.1,40.7,73.1,41.3,73.2 M49.6,21.6c0.3,0,0.9-0.1,1.2-0.1c0.3,0,1-0.1,1.3-0.1c0.7-0.1,2.1-0.1,2.8-0.2
		c0.7-0.1,2.2-0.1,3-0.2c0.4,0,1.1-0.1,1.5-0.1c0.4,0,1.1,0,1.5-0.1c0.8,0,2.4-0.1,3.2-0.1c0.8,0,2.5-0.1,3.3-0.1c0.4,0,1.2,0,1.7,0
		c0.4,0,1.3,0,1.7,0c0.6,0,1.7,0,2.6,0c0.9,0,2,0,2.6,0c0.4,0,1.3,0,1.7,0c0.4,0,1.2,0,1.7,0c0.8,0,2.5,0.1,3.3,0.1
		c0.8,0,2.4,0.1,3.2,0.1c0.4,0,1.1,0,1.5,0.1c0.4,0,1.1,0.1,1.5,0.1c0.8,0.1,2.3,0.1,3,0.2c0.7,0.1,2.1,0.2,2.8,0.2
		c0.3,0,1,0.1,1.3,0.1c0.3,0,0.9,0.1,1.2,0.1c1.3,0.2,3.5,0.3,4.5,0.5c0.4,0.1,1.1,0.1,1.6,0.2c-0.1-0.5-0.1-1-0.2-1.5
		c-0.2,0-0.4-0.1-0.6-0.1c-0.9-0.2-1.9-0.3-3-0.5c-0.4-0.1-0.8-0.1-1.2-0.2c-0.2,0-0.5-0.1-0.7-0.1c-0.2,0-0.4-0.1-0.7-0.1
		c-0.5-0.1-0.9-0.1-1.4-0.2c-0.8-0.1-1.6-0.2-2.5-0.3c-0.1,0-0.3,0-0.4-0.1c-0.7-0.1-1.5-0.2-2.2-0.2c-0.3,0-0.6-0.1-0.9-0.1
		c-0.2,0-0.3,0-0.5,0c-0.4,0-0.7-0.1-1.1-0.1c-0.1,0-0.2,0-0.3,0c-0.4,0-0.9-0.1-1.3-0.1c-0.5,0-1.1-0.1-1.6-0.1
		c-0.6,0-1.1-0.1-1.7-0.1c-1.1-0.1-2.3-0.1-3.5-0.2c-0.3,0-0.7,0-1,0c-0.3,0-0.5,0-0.8,0c-0.3,0-0.5,0-0.8,0c-0.3,0-0.6,0-0.9,0
		c-0.2,0-0.4,0-0.6,0c-0.6,0-1.3,0-1.9,0c-0.6,0-1.3,0-1.9,0c-0.2,0-0.4,0-0.6,0c-0.3,0-0.6,0-0.9,0c-0.3,0-0.5,0-0.8,0
		c-0.3,0-0.5,0-0.8,0c-0.3,0-0.7,0-1,0c-1.2,0-2.3,0.1-3.5,0.2c-0.6,0-1.2,0.1-1.7,0.1c-0.5,0-1.1,0.1-1.6,0.1
		c-0.4,0-0.9,0.1-1.3,0.1c-0.1,0-0.2,0-0.3,0c-0.4,0-0.7,0.1-1.1,0.1c-0.2,0-0.3,0-0.5,0c-0.3,0-0.6,0.1-0.9,0.1
		C55.7,19,55,19,54.3,19.1c-0.2,0-0.3,0-0.4,0.1c-0.8,0.1-1.7,0.2-2.5,0.3c-0.5,0.1-1,0.1-1.4,0.2c-0.2,0-0.4,0.1-0.7,0.1
		c-0.2,0-0.5,0.1-0.7,0.1c-0.4,0.1-0.8,0.1-1.2,0.2c-1.1,0.2-2.1,0.4-3,0.5c-0.2,0-0.4,0.1-0.6,0.1c-0.1,0.5-0.1,1-0.2,1.5
		c0.5-0.1,1.1-0.1,1.6-0.2C46.1,21.9,48.4,21.8,49.6,21.6 M70.7,98.2L70.7,98.2C70.7,98.2,70.6,98.2,70.7,98.2 M70.7,91.2L70.7,91.2
		C70.7,91.2,70.7,91.2,70.7,91.2 M47.8,29c0.2,0,1-0.1,1.3-0.1c0.2,0,1.1,0,1.4-0.1c0.5-0.1,2.4-0.1,3-0.2c0.5,0,2.6-0.1,3.2-0.1
		c0.3,0,1.3,0,1.5-0.1c0.3,0,1.3,0,1.6-0.1c0.6,0,2.8-0.1,3.4-0.1c0.6,0,2.9,0,3.5-0.1c0.3,0,1.4,0,1.7,0c0.3,0,1.4,0,1.8,0
		c0.6,0,2.4,0,3.3,0c0.9,0,2.8,0,3.3,0c0.3,0,1.4,0,1.8,0c0.3,0,1.4,0,1.7,0c0.6,0,2.9,0,3.5,0.1c0.6,0,2.8,0.1,3.4,0.1
		c0.3,0,1.3,0,1.6,0.1c0.3,0,1.3,0,1.5,0.1c0.6,0,2.6,0.1,3.2,0.1c0.5,0.1,2.4,0.1,3,0.2c0.3,0,1.1,0.1,1.4,0.1
		c0.2,0,1.1,0.1,1.3,0.1c0.9,0.1,4,0.2,4.8,0.4c0.1,0,0.4,0,0.7,0.1c-0.1-0.7-0.2-1.3-0.3-1.9c-0.7-0.1-1.3-0.2-2.1-0.3
		c-0.4-0.1-0.9-0.1-1.3-0.2c-0.3,0-0.5-0.1-0.8-0.1c-0.2,0-0.5-0.1-0.7-0.1c-0.5-0.1-1-0.1-1.6-0.2c-0.9-0.1-1.7-0.2-2.7-0.3
		c-0.2,0-0.3,0-0.5-0.1c-0.8-0.1-1.6-0.2-2.4-0.2c-0.3,0-0.6-0.1-1-0.1c-0.2,0-0.4,0-0.5-0.1c-0.4,0-0.8-0.1-1.2-0.1
		c-0.1,0-0.2,0-0.4,0c-0.5,0-0.9-0.1-1.4-0.1c-0.6,0-1.2-0.1-1.8-0.1c-0.6,0-1.2-0.1-1.9-0.1c-1.2-0.1-2.5-0.1-3.7-0.2
		c-0.4,0-0.7,0-1.1,0c-0.3,0-0.6,0-0.8,0c-0.3,0-0.6,0-0.9,0c-0.3,0-0.7,0-1,0c-0.2,0-0.5,0-0.7,0c-0.8,0-1.6,0-2.4,0
		c-0.8,0-1.6,0-2.4,0c-0.2,0-0.5,0-0.7,0c-0.3,0-0.7,0-1,0c-0.3,0-0.6,0-0.9,0c-0.3,0-0.6,0-0.8,0c-0.4,0-0.7,0-1.1,0
		c-1.3,0-2.5,0.1-3.7,0.2c-0.6,0-1.2,0.1-1.9,0.1c-0.6,0-1.2,0.1-1.8,0.1c-0.5,0-0.9,0.1-1.4,0.1c-0.1,0-0.2,0-0.4,0
		c-0.4,0-0.8,0.1-1.2,0.1c-0.2,0-0.4,0-0.5,0.1c-0.3,0-0.6,0.1-1,0.1c-0.8,0.1-1.6,0.2-2.4,0.2c-0.2,0-0.3,0-0.5,0.1
		c-0.9,0.1-1.8,0.2-2.7,0.3c-0.5,0.1-1.1,0.1-1.6,0.2c-0.2,0-0.5,0.1-0.7,0.1c-0.3,0-0.5,0.1-0.8,0.1c-0.4,0.1-0.9,0.1-1.3,0.2
		c-0.7,0.1-1.4,0.2-2.1,0.3c-0.1,0.6-0.2,1.3-0.3,1.9c0.3,0,0.5,0,0.7-0.1C43.8,29.2,46.9,29.1,47.8,29 M45.7,46.7
		c0.1,0,1.4,0,1.4,0c0.2,0,3.1,0,3.3-0.1c0.2,0,3.3,0,3.5,0c0.1,0,1.5,0,1.6,0c0.1,0,1.6,0,1.7,0c0.2,0,3.5,0,3.7,0
		c0.2,0,3.7,0,3.9,0c0.1,0,1.8,0,1.9,0c0.1,0,1.8,0,1.9,0c0.2,0,3.9,0,4.1,0c0.1,0,0.3,0,0.6,0c0.3,0,0.6,0,0.6,0c0.2,0,3.9,0,4.1,0
		c0.1,0,1.8,0,1.9,0c0.1,0,1.8,0,1.9,0c0.2,0,3.7,0,3.9,0c0.2,0,3.5,0,3.7,0c0.1,0,1.6,0,1.7,0c0.1,0,1.5,0,1.6,0c0.2,0,3.3,0,3.5,0
		c0.2,0,3.1,0,3.3,0.1c0.1,0,1.4,0,1.4,0c0.1,0,1.3,0,1.4,0c0.3,0,4.2,0.1,5.1,0.1c-0.2-0.9-0.4-1.7-0.5-2.5h0
		c-0.5-0.1-1-0.1-1.5-0.2c-0.3,0-0.6-0.1-1-0.1c-0.3,0-0.6-0.1-0.9-0.1c-0.6-0.1-1.2-0.1-1.9-0.2c-1-0.1-2-0.2-3.1-0.3
		c-0.2,0-0.4,0-0.5-0.1c-0.9-0.1-1.8-0.2-2.7-0.2c-0.4,0-0.7-0.1-1.1-0.1c-0.2,0-0.4,0-0.6-0.1C93.4,43,93,43,92.5,43
		c-0.1,0-0.3,0-0.4,0c-0.5,0-1.1-0.1-1.6-0.1c-0.7,0-1.3-0.1-2-0.1c-0.7,0-1.4-0.1-2.1-0.1c-1.4-0.1-2.8-0.1-4.3-0.2
		c-0.4,0-0.8,0-1.2,0c-0.3,0-0.6,0-0.9,0c-0.3,0-0.7,0-1,0c-0.4,0-0.8,0-1.2,0c-0.3,0-0.5,0-0.8,0c-1.2,0-2.3,0-3.5-0.1
		c-1.2,0-2.3,0-3.5,0.1c-0.3,0-0.5,0-0.8,0c-0.4,0-0.8,0-1.2,0c-0.3,0-0.7,0-1,0c-0.3,0-0.6,0-1,0c-0.4,0-0.8,0-1.2,0
		c-1.4,0.1-2.9,0.1-4.3,0.2c-0.7,0-1.4,0.1-2.1,0.1c-0.7,0-1.3,0.1-2,0.1c-0.5,0-1.1,0.1-1.6,0.1c-0.1,0-0.3,0-0.4,0
		C53.9,43,53.5,43,53,43c-0.2,0-0.4,0-0.6,0.1c-0.4,0-0.7,0.1-1.1,0.1c-0.9,0.1-1.8,0.2-2.7,0.2c-0.2,0-0.4,0-0.5,0.1
		C47,43.6,46,43.7,45,43.8c-0.7,0.1-1.3,0.1-1.9,0.2c-0.3,0-0.6,0.1-0.9,0.1c-0.3,0-0.7,0.1-1,0.1c-0.5,0.1-1,0.1-1.5,0.2h0
		c-0.2,0.8-0.3,1.7-0.5,2.5c0.9,0,4.9-0.1,5.1-0.1C44.4,46.8,45.6,46.8,45.7,46.7 M41.3,37.6C41.3,37.7,41.3,37.7,41.3,37.6
		c0.1-0.8,0.2-1.5,0.4-2.2c0.3,0,0.6-0.1,0.9-0.1c0.5-0.1,0.9-0.1,1.4-0.2c0.3,0,0.6-0.1,0.9-0.1c0.3,0,0.5-0.1,0.8-0.1
		c0.6-0.1,1.1-0.1,1.7-0.2c0.9-0.1,1.9-0.2,2.9-0.3c0.2,0,0.3,0,0.5-0.1c0.8-0.1,1.7-0.1,2.6-0.2c0.3,0,0.7-0.1,1-0.1
		c0.2,0,0.4,0,0.6-0.1c0.4,0,0.8-0.1,1.3-0.1c0.1,0,0.3,0,0.4,0c0.5,0,1-0.1,1.5-0.1c0.6,0,1.3-0.1,1.9-0.1c0.7,0,1.3-0.1,2-0.1
		c1.3-0.1,2.6-0.1,4-0.2c0.4,0,0.8,0,1.1,0c0.3,0,0.6,0,0.9,0c0.3,0,0.6,0,0.9,0c0.4,0,0.7,0,1.1,0c0.2,0,0.5,0,0.7,0c1,0,2,0,3,0
		c1,0,2,0,3,0c0.2,0,0.5,0,0.7,0c0.4,0,0.7,0,1.1,0c0.3,0,0.6,0,0.9,0c0.3,0,0.6,0,0.9,0c0.4,0,0.8,0,1.1,0c1.3,0.1,2.7,0.1,4,0.2
		c0.7,0,1.3,0.1,2,0.1c0.6,0,1.3,0.1,1.9,0.1c0.5,0,1,0.1,1.5,0.1c0.1,0,0.3,0,0.4,0c0.4,0,0.8,0.1,1.3,0.1c0.2,0,0.4,0,0.6,0.1
		c0.3,0,0.7,0.1,1,0.1c0.9,0.1,1.7,0.1,2.6,0.2c0.2,0,0.3,0,0.5,0.1c1,0.1,1.9,0.2,2.9,0.3c0.6,0.1,1.2,0.1,1.7,0.2
		c0.3,0,0.5,0.1,0.8,0.1c0.3,0,0.6,0.1,0.9,0.1c0.5,0.1,1,0.1,1.4,0.2c0.3,0,0.6,0.1,0.9,0.1c0.1,0.7,0.3,1.5,0.4,2.3
		c0,0-0.1,0-0.1,0c-0.5-0.1-4.4-0.1-5.1-0.2c-0.2,0-1.2,0-1.3-0.1c-0.2,0-1.2,0-1.4-0.1c-0.3,0-2.7-0.1-3.1-0.1
		c-0.4,0-2.9-0.1-3.3-0.1c-0.2,0-1.4,0-1.6,0c-0.2,0-1.4,0-1.6,0c-0.4,0-3.2,0-3.6-0.1c-0.4,0-3.3,0-3.7,0c-0.2,0-1.6,0-1.8,0
		c-0.2,0-1.6,0-1.9,0c-0.4,0-3.4,0-3.9,0c0,0-0.1,0-0.1,0c-0.1,0-0.1,0-0.1,0c-0.4,0-3.4,0-3.9,0c-0.2,0-1.6,0-1.9,0
		c-0.2,0-1.6,0-1.8,0c-0.4,0-3.3,0-3.7,0c-0.4,0-3.2,0-3.6,0.1c-0.2,0-1.5,0-1.6,0c-0.2,0-1.4,0-1.6,0c-0.4,0-3,0.1-3.3,0.1
		c-0.4,0-2.8,0.1-3.1,0.1c-0.2,0-1.2,0-1.4,0.1c-0.2,0-1.2,0-1.3,0.1C45.8,37.5,41.8,37.6,41.3,37.6"/>
	<rect x="72.6" y="61.4" fill="#144391" width="65.4" height="43.4"/>
	<polygon fill="#FDEB1B" points="103.9,70.9 105.2,69.9 106.6,70.9 106.1,69.2 107.5,68.2 105.8,68.2 105.2,66.6 104.7,68.2 
		103,68.2 104.4,69.2 	"/>
	<polygon fill="#FDEB1B" points="96.7,72.8 98.1,71.8 99.5,72.8 99,71.1 100.3,70.1 98.6,70.1 98.1,68.5 97.6,70.2 95.8,70.1 
		97.2,71.1 	"/>
	<polygon fill="#FDEB1B" points="92.9,73.7 92.3,75.4 90.6,75.4 92,76.4 91.5,78 92.9,77 94.2,78 93.7,76.4 95.1,75.4 93.4,75.4 	
		"/>
	<polygon fill="#FDEB1B" points="91,84.1 92.3,85.1 91.8,83.5 93.2,82.5 91.5,82.5 91,80.8 90.4,82.5 88.7,82.5 90.1,83.5 
		89.6,85.1 	"/>
	<polygon fill="#FDEB1B" points="93.4,89.6 92.9,88 92.3,89.6 90.6,89.6 92,90.6 91.5,92.2 92.9,91.2 94.3,92.2 93.7,90.6 
		95.1,89.6 	"/>
	<polygon fill="#FDEB1B" points="98.6,94.8 98.1,93.2 97.6,94.8 95.9,94.8 97.3,95.8 96.7,97.4 98.1,96.4 99.5,97.4 99,95.8 
		100.4,94.8 	"/>
	<polygon fill="#FDEB1B" points="105.8,96.7 105.2,95.1 104.7,96.7 103,96.7 104.4,97.7 103.9,99.3 105.2,98.3 106.6,99.3 
		106.1,97.7 107.5,96.7 	"/>
	<polygon fill="#FDEB1B" points="112.9,94.8 112.4,93.2 111.8,94.8 110.1,94.8 111.5,95.8 111,97.4 112.4,96.4 113.7,97.4 
		113.2,95.8 114.6,94.8 	"/>
	<polygon fill="#FDEB1B" points="118.1,89.6 117.6,88 117.1,89.6 115.3,89.6 116.7,90.6 116.2,92.2 117.6,91.2 119,92.2 118.5,90.6 
		119.9,89.6 	"/>
	<polygon fill="#FDEB1B" points="121.8,82.5 120,82.5 119.5,80.8 119,82.5 117.2,82.5 118.6,83.5 118.1,85.1 119.5,84.1 120.9,85.1 
		120.4,83.5 	"/>
	<polygon fill="#FDEB1B" points="116.2,78 117.6,77 119,78 118.5,76.3 119.9,75.3 118.1,75.3 117.6,73.7 117.1,75.3 115.3,75.3 
		116.7,76.3 	"/>
	<polygon fill="#FDEB1B" points="112.4,68.5 111.9,70.2 110.1,70.1 111.5,71.2 111,72.8 112.4,71.8 113.8,72.8 113.2,71.2 
		114.6,70.1 112.9,70.1 	"/>
	<polygon fill="#585857" points="78.7,138.1 74.6,138.1 74.6,141.2 79.2,141.2 79.2,142.8 72.6,142.8 72.6,132 78.9,132 78.9,133.7 
		74.6,133.7 74.6,136.5 78.7,136.5 	"/>
	<path fill="#585857" d="M87.8,140.5c0,0.9,0,1.7,0.1,2.3h-1.7l-0.1-1.2h0c-0.3,0.6-1.1,1.4-2.5,1.4c-1.4,0-2.7-0.8-2.7-3.4V135h2
		v4.2c0,1.3,0.4,2.1,1.5,2.1c0.8,0,1.3-0.6,1.5-1.1c0.1-0.2,0.1-0.4,0.1-0.6V135h2V140.5z"/>
	<path fill="#585857" d="M90,137.6c0-1.1,0-1.8-0.1-2.5h1.7l0.1,1.5h0.1c0.4-1.1,1.3-1.7,2.1-1.7c0.2,0,0.3,0,0.5,0v1.9
		c-0.2,0-0.3-0.1-0.6-0.1c-1,0-1.6,0.6-1.8,1.5c0,0.2-0.1,0.4-0.1,0.6v4h-2V137.6z"/>
	<path fill="#585857" d="M97.2,138.9c0,1.5,0.7,2.6,1.9,2.6c1.1,0,1.9-1.1,1.9-2.7c0-1.2-0.5-2.6-1.9-2.6
		C97.8,136.3,97.2,137.7,97.2,138.9 M103.1,138.9c0,2.9-2,4.2-4,4.2c-2.2,0-3.9-1.5-3.9-4c0-2.6,1.7-4.1,4.1-4.1
		C101.6,134.9,103.1,136.5,103.1,138.9"/>
	<path fill="#585857" d="M106.7,139.6c0,0.2,0,0.4,0.1,0.5c0.2,0.8,0.9,1.4,1.7,1.4c1.3,0,2-1,2-2.6c0-1.4-0.7-2.5-1.9-2.5
		c-0.8,0-1.6,0.6-1.8,1.5c0,0.2-0.1,0.3-0.1,0.5V139.6z M104.8,137.6c0-1,0-1.9-0.1-2.6h1.7l0.1,1.2h0c0.6-0.9,1.5-1.4,2.7-1.4
		c1.8,0,3.3,1.5,3.3,4c0,2.8-1.8,4.2-3.6,4.2c-1,0-1.8-0.4-2.2-1h0v4h-2V137.6z"/>
	<path fill="#585857" d="M119,138.1c0-0.7-0.3-1.9-1.6-1.9c-1.2,0-1.7,1.1-1.8,1.9H119z M115.6,139.5c0,1.4,1.2,2,2.4,2
		c0.9,0,1.6-0.1,2.2-0.4l0.3,1.4c-0.7,0.3-1.6,0.5-2.7,0.5c-2.5,0-4-1.6-4-3.9c0-2.2,1.3-4.2,3.8-4.2c2.5,0,3.4,2.1,3.4,3.8
		c0,0.4,0,0.7-0.1,0.8H115.6z"/>
	<path fill="#585857" d="M126.6,139c-1.4,0-2.7,0.3-2.7,1.5c0,0.8,0.5,1.1,1.1,1.1c0.8,0,1.4-0.5,1.5-1.1c0-0.1,0.1-0.3,0.1-0.4V139
		z M126.9,142.8l-0.1-0.9h0c-0.5,0.6-1.3,1-2.3,1c-1.6,0-2.5-1.1-2.5-2.3c0-2,1.8-3,4.6-2.9v-0.1c0-0.5-0.2-1.4-1.6-1.4
		c-0.8,0-1.6,0.2-2.1,0.6l-0.4-1.3c0.6-0.4,1.6-0.7,2.8-0.7c2.5,0,3.2,1.6,3.2,3.3v2.8c0,0.7,0,1.4,0.1,1.9H126.9z"/>
	<path fill="#585857" d="M130.6,137.4c0-0.9,0-1.6-0.1-2.3h1.7l0.1,1.2h0.1c0.3-0.6,1.2-1.3,2.5-1.3c1.4,0,2.8,0.9,2.8,3.3v4.6h-2
		v-4.4c0-1.1-0.4-2-1.5-2c-0.8,0-1.3,0.6-1.5,1.2c-0.1,0.2-0.1,0.4-0.1,0.6v4.6h-2V137.4z"/>
	<path fill="#585857" d="M145.2,132v6.3c0,2.1,0.9,3.1,2.2,3.1c1.4,0,2.3-1,2.3-3.1V132h2v6.2c0,3.3-1.7,4.8-4.3,4.8
		c-2.5,0-4.1-1.4-4.1-4.8V132H145.2z"/>
	<path fill="#585857" d="M153.8,137.4c0-0.9,0-1.6-0.1-2.3h1.7l0.1,1.2h0c0.3-0.6,1.2-1.3,2.5-1.3c1.4,0,2.8,0.9,2.8,3.3v4.6h-2
		v-4.4c0-1.1-0.4-2-1.5-2c-0.8,0-1.3,0.6-1.5,1.2c-0.1,0.2-0.1,0.4-0.1,0.6v4.6h-2V137.4z"/>
	<path fill="#585857" d="M163,135h2v7.8h-2V135z M165.1,132.9c0,0.6-0.4,1.1-1.1,1.1c-0.7,0-1.1-0.5-1.1-1.1c0-0.6,0.5-1.1,1.1-1.1
		C164.7,131.8,165.1,132.3,165.1,132.9"/>
	<path fill="#585857" d="M168.7,138.9c0,1.5,0.7,2.6,1.9,2.6c1.1,0,1.9-1.1,1.9-2.7c0-1.2-0.5-2.6-1.9-2.6
		C169.3,136.3,168.7,137.7,168.7,138.9 M174.6,138.9c0,2.9-2,4.2-4,4.2c-2.2,0-3.9-1.5-3.9-4c0-2.6,1.7-4.1,4.1-4.1
		C173,134.9,174.6,136.5,174.6,138.9"/>
	<path fill="#585857" d="M176.2,137.4c0-0.9,0-1.6-0.1-2.3h1.7l0.1,1.2h0.1c0.3-0.6,1.2-1.3,2.5-1.3c1.4,0,2.8,0.9,2.8,3.3v4.6h-2
		v-4.4c0-1.1-0.4-2-1.5-2c-0.8,0-1.3,0.6-1.5,1.2c-0.1,0.2-0.1,0.4-0.1,0.6v4.6h-2V137.4z"/>
	<path fill="#585857" d="M80.4,126.2c-0.5,0.2-1.5,0.5-2.8,0.5c-3.4,0-5.5-2.1-5.5-5.4c0-3.6,2.5-5.7,5.8-5.7c1.3,0,2.2,0.3,2.6,0.5
		l-0.4,1.6c-0.5-0.2-1.2-0.4-2.1-0.4c-2.2,0-3.8,1.4-3.8,4c0,2.4,1.4,3.9,3.8,3.9c0.8,0,1.6-0.2,2.2-0.4L80.4,126.2z"/>
	<path fill="#585857" d="M83.5,122.7c0,1.5,0.7,2.6,1.9,2.6c1.1,0,1.9-1.1,1.9-2.7c0-1.2-0.5-2.6-1.9-2.6
		C84.1,120,83.5,121.4,83.5,122.7 M89.4,122.6c0,2.9-2,4.2-4,4.2c-2.2,0-3.9-1.5-3.9-4c0-2.6,1.7-4.1,4.1-4.1
		C87.9,118.6,89.4,120.2,89.4,122.6"/>
	<path fill="#585857" d="M98.1,124.2c0,0.9,0,1.7,0.1,2.3h-1.7l-0.1-1.2h0c-0.3,0.6-1.1,1.4-2.5,1.4c-1.4,0-2.7-0.8-2.7-3.4v-4.6h2
		v4.2c0,1.3,0.4,2.1,1.5,2.1c0.8,0,1.3-0.6,1.5-1.1c0.1-0.2,0.1-0.4,0.1-0.6v-4.7h2V124.2z"/>
	<path fill="#585857" d="M100.2,121.1c0-0.9,0-1.6-0.1-2.3h1.7l0.1,1.2h0c0.3-0.6,1.2-1.3,2.5-1.3c1.4,0,2.8,0.9,2.8,3.3v4.6h-2
		v-4.4c0-1.1-0.4-2-1.5-2c-0.8,0-1.3,0.6-1.5,1.2c-0.1,0.2-0.1,0.4-0.1,0.6v4.6h-2V121.1z"/>
	<path fill="#585857" d="M115.2,126.3c-0.4,0.2-1.2,0.4-2.2,0.4c-2.4,0-4-1.6-4-4c0-2.3,1.6-4.2,4.4-4.2c0.7,0,1.5,0.2,1.9,0.4
		l-0.4,1.5c-0.3-0.1-0.8-0.3-1.5-0.3c-1.5,0-2.4,1.1-2.4,2.5c0,1.6,1,2.5,2.4,2.5c0.7,0,1.2-0.1,1.6-0.3L115.2,126.3z"/>
	<path fill="#585857" d="M116.6,118.7h2v7.8h-2V118.7z M118.7,116.6c0,0.6-0.4,1.1-1.1,1.1c-0.7,0-1.1-0.5-1.1-1.1
		c0-0.6,0.5-1.1,1.1-1.1C118.3,115.5,118.7,116,118.7,116.6"/>
	<rect x="120.7" y="115.2" fill="#585857" width="2" height="11.4"/>
	<path fill="#585857" d="M129.7,122.7c0,1.5,0.7,2.6,1.9,2.6c1.1,0,1.9-1.1,1.9-2.7c0-1.2-0.5-2.6-1.9-2.6
		C130.3,120,129.7,121.4,129.7,122.7 M135.6,122.6c0,2.9-2,4.2-4,4.2c-2.2,0-3.9-1.5-3.9-4c0-2.6,1.7-4.1,4.1-4.1
		C134.1,118.6,135.6,120.2,135.6,122.6"/>
	<path fill="#585857" d="M137.5,126.5v-6.3h-1.1v-1.5h1.1v-0.3c0-1,0.3-2,0.9-2.7c0.6-0.5,1.4-0.8,2-0.8c0.5,0,1,0.1,1.3,0.2
		l-0.1,1.5c-0.2-0.1-0.5-0.1-0.8-0.1c-1,0-1.3,0.8-1.3,1.8v0.4h1.7v1.5h-1.7v6.3H137.5z"/>
	<path fill="#585857" d="M148,116.5v2.2h1.9v1.5H148v3.4c0,0.9,0.3,1.4,1,1.4c0.3,0,0.6,0,0.8-0.1l0,1.5c-0.3,0.1-0.8,0.2-1.4,0.2
		c-0.7,0-1.3-0.2-1.7-0.6c-0.4-0.4-0.6-1.2-0.6-2.2v-3.7h-1.1v-1.5h1.1V117L148,116.5z"/>
	<path fill="#585857" d="M151.3,115.2h2v4.6h0c0.2-0.4,0.6-0.7,1-0.9c0.4-0.2,0.9-0.4,1.4-0.4c1.3,0,2.7,0.9,2.7,3.4v4.6h-2v-4.4
		c0-1.1-0.4-2-1.5-2c-0.8,0-1.3,0.5-1.5,1.1c-0.1,0.2-0.1,0.4-0.1,0.6v4.7h-2V115.2z"/>
	<path fill="#585857" d="M165.4,121.8c0-0.7-0.3-1.9-1.6-1.9c-1.2,0-1.7,1.1-1.8,1.9H165.4z M161.9,123.2c0,1.4,1.2,2,2.4,2
		c0.9,0,1.6-0.1,2.2-0.4l0.3,1.4c-0.7,0.3-1.6,0.5-2.7,0.5c-2.5,0-4-1.6-4-3.9c0-2.2,1.3-4.2,3.8-4.2c2.5,0,3.4,2.1,3.4,3.8
		c0,0.4,0,0.7-0.1,0.8H161.9z"/>
</g>
</svg>
