<?xml version="1.0" encoding="utf-8"?>
<!-- Generator: Adobe Illustrator 18.1.1, SVG Export Plug-In . SVG Version: 6.00 Build 0)  -->
<svg version="1.1" id="Layer_1" xmlns="http://www.w3.org/2000/svg" xmlns:xlink="http://www.w3.org/1999/xlink" x="0px" y="0px"
	 viewBox="0 0 211 156" enable-background="new 0 0 211 156" xml:space="preserve">
<g>
	<g>
		<path fill="#C6C6C6" d="M36.6,58.3c0,0,45-5.8,46.3-6c1.9-0.3,3.7-0.7,5.3-1.1c3.6-1,7-2.5,10-4.5c2.8-1.9,5.5-4.7,8.1-7.7
			c1.7-1.9,3.4-4.5,5.1-6.9v-1.2c-1.9,2.9-3.8,5.3-5.8,7.5c-2.6,2.9-5.3,5.3-8.1,7c-2.9,1.9-6.1,3.2-9.6,4.1c-1.6,0.4-3.3,0.7-5.1,1
			c-1.2,0.2-2.5,0.3-3.8,0.4c-0.5,0.1-42.3,4.5-42.3,4.5V58.3z"/>
		<path fill="#C6C6C6" d="M97,50.7c-2.8,1.6-6.1,2.8-9.7,3.5c-1.5,0.3-3.2,0.6-5.1,0.8c-1.1,0.1-2.3,0.2-3.4,0.3
			c-0.6,0.1-1.2,0.1-1.8,0.2c-13.8,1.2-27.5,2.6-40.4,3.8v2.9c12.9-1.6,26.8-3.2,40.6-4.8c0.6-0.1,1.2-0.1,1.8-0.2
			c1.1-0.1,2.3-0.2,3.4-0.4c2-0.3,3.7-0.6,5.2-0.9c3.7-0.8,7.1-2.2,10-3.9c2.9-1.7,5.5-4.2,8.2-7.2c1.7-1.9,3.6-4.5,5.4-6.9v-1.1
			c-2.1,2.9-4.1,5.3-6.1,7.3C102.6,46.9,99.8,49.2,97,50.7z"/>
		<path fill="#C6C6C6" d="M104.9,50c-2.7,2.5-5.6,4.5-8.5,5.9c-2.8,1.4-6,2.3-9.7,2.9c-1.5,0.3-3.2,0.5-5.1,0.6l-44.9,3.7v2.9
			l39.9-4.2l5.2-0.5c1.9-0.2,3.6-0.5,5.2-0.8c3.8-0.7,7.1-1.8,10.1-3.3c3-1.5,6-4,8.8-6.7c1.9-1.8,3.7-4.1,5.6-6.5v-1
			C109.1,45.8,107,48.1,104.9,50z"/>
		<path fill="#C6C6C6" d="M94,65.2c-2.6,1.5-4.6,2.3-8.3,2.7c-2.3,0.2-4.6,0.4-6.8,0.5c-1.1,0.1-2.2,0.1-3.3,0.2
			c-6.8,0.4-13.4,0.8-20.2,1.3L36.6,71v2.9l19-1.7c6.1-0.5,13.2-1.2,20.2-1.7l5.1-0.4c2-0.2,3.6-0.3,5.1-0.5c3.8-0.5,7.1-1.3,10-2.4
			c3.1-1.2,6.1-3,9-5.1c2.7-1.9,6.4-5.7,6.4-5.8v-1c-2.4,2.4-3.8,3.7-6.4,5.4C101.7,62.7,96.4,63.9,94,65.2z"/>
		<path fill="#C6C6C6" d="M95,70.7c-2.8,0.8-6,1.4-9.8,1.7c-1.5,0.1-3.1,0.2-5,0.3l-5,0.2c-12.5,0.6-24.9,1.2-38.6,2v2.9
			c13.1-1,25.9-2,38.7-2.9l5-0.3c1.9-0.1,3.5-0.3,5-0.4c3.8-0.4,7.1-1.1,10-2c3.2-1,6.3-2.5,9.3-4.4c2.2-1.4,4.4-3.1,6.7-5v-0.1
			c-2.5,2.1-4.9,2.6-7.3,4C101.2,68.4,98.1,69.8,95,70.7z"/>
		<path fill="#C6C6C6" d="M94.5,75.5c-2.9,0.7-5.9,1.1-9.7,1.3c-1.5,0.1-3,0.2-4.9,0.2l-5,0.2c-12.5,0.5-25.2,1-38.2,1.6v2.9
			C49.5,80.9,62.2,80,75,79.2l5-0.3c1.9-0.1,3.5-0.2,5-0.4c3.9-0.4,7-0.9,9.9-1.6c3.3-0.8,6.5-2.1,9.5-3.7c2.3-1.2,4.6-2.7,7-4.5
			v-1.2c-2.6,1.9-5.1,3.4-7.6,4.6C100.8,73.7,97.7,74.8,94.5,75.5z"/>
		<path fill="#C6C6C6" d="M94.1,80.3c-2.9,0.5-5.9,0.9-9.7,1.1c-1.4,0.1-2.9,0.1-4.9,0.2l-42.9,1.2v2.9l38-2l4.9-0.2
			c1.9-0.1,3.5-0.2,4.9-0.3c3.8-0.3,6.9-0.7,9.9-1.3c3.3-0.7,6.5-1.7,9.6-3c2.4-1,4.9-2.3,7.4-3.8v-1.2c-2.7,1.6-5.3,2.9-7.9,3.9
			C100.5,78.8,97.3,79.7,94.1,80.3z"/>
		<path fill="#C6C6C6" d="M93.8,85c-5.3,0.7-10.7,0.8-15.9,0.9c-1.2,0-2.4,0-3.6,0.1l-37.6,0.7v2.9l37.7-1.6
			c1.2-0.1,2.4-0.1,3.6-0.2c5.3-0.2,10.7-0.4,16.1-1.3c3.4-0.5,6.6-1.3,9.6-2.3c2.5-0.8,5.1-1.9,7.7-3.2v-1.1
			c-2.8,1.3-5.5,2.4-8.1,3.2C100.3,83.9,97.1,84.6,93.8,85z"/>
		<path fill="#C6C6C6" d="M93.5,89.8c-4.9,0.4-10,0.4-14.8,0.4c-1.5,0-3,0-4.6,0c-12.5,0.1-24.8,0.2-37.4,0.3v2.9
			c12-0.4,24.7-0.8,37.5-1.2c1.5-0.1,3-0.1,4.5-0.1c4.9-0.1,10-0.3,14.9-0.8c3.5-0.4,6.6-0.9,9.7-1.7c2.6-0.6,5.4-1.5,8.1-2.6V86
			c-2.8,1-5.6,1.8-8.4,2.4C100,89.1,96.9,89.5,93.5,89.8z"/>
		<path fill="#C6C6C6" d="M93.3,94.5c-2.1,0.1-4.3,0.1-6.8,0.1c-1,0-1.9,0-2.9,0l-9.7-0.1c-6.6,0-13.2-0.1-19.4-0.1l-17.9,0v2.9
			l17.9-0.5c6.2-0.2,12.8-0.3,19.4-0.4l9.7-0.1c2.7,0,6.2-0.1,9.7-0.4c3.5-0.2,6.6-0.6,9.7-1.1c2.7-0.4,5.5-1,8.3-1.7v-1
			c-2.9,0.7-5.7,1.2-8.5,1.6C99.8,94.1,96.7,94.4,93.3,94.5z"/>
		<path fill="#C6C6C6" d="M83.5,99.1L73.8,99c-12.3-0.2-24.6-0.4-37.2-0.6v2.9c12-0.1,24.7-0.2,37.2-0.3l9.7-0.1
			c3.3-0.1,6.4-0.1,9.7-0.2c6.6-0.2,12.6-0.7,18.2-1.4v-1c-5.6,0.6-11.5,0.9-18.2,1C89.9,99.1,86.7,99.1,83.5,99.1z"/>
		<polygon fill="#C6C6C6" points="111.3,104.2 36.6,102.3 36.6,105.2 111.3,105.2 		"/>
	</g>
	<g>
		<path fill="#C6C6C6" d="M104.6,55.5c-2.8,2.3-5,3.9-8.5,5.3c-3,1.2-6.3,1.7-10,2.2c-2.4,0.3-4.9,0.8-7.3,1c-1,0.1-2,0.1-2.9,0.2
			L36.6,67V70l39.4-3.8l5.1-0.5c1.9-0.2,3.6-0.4,5.1-0.6c3.8-0.6,7.1-1.6,10.1-2.9c3.1-1.4,6.2-3.6,9-6c2-1.6,3.8-3.7,5.9-6v-1
			C108.9,51.7,106.8,53.8,104.6,55.5z"/>
	</g>
	<polygon fill="#FFFFFF" points="67.7,133 133.1,133 133.1,103.9 67.7,103.9 67.7,133 	"/>
	<g>
		<polygon fill="#164194" points="133.1,105.2 133.1,61.4 67.7,61.4 67.7,105.2 133.1,105.2 		"/>
		<polygon fill="#FFED00" points="101.1,67.6 103.4,67.6 101.6,69.1 102.3,71.3 100.5,69.9 98.6,71.3 99.3,69.1 97.5,67.6
			99.8,67.6 100.5,65.4 101.1,67.6 		"/>
		<polygon fill="#FFED00" points="101.2,96.8 103.5,96.8 101.7,98.2 102.4,100.4 100.5,99.1 98.7,100.4 99.4,98.2 97.6,96.8
			99.8,96.8 100.5,94.7 101.2,96.8 		"/>
		<polygon fill="#FFED00" points="108.4,94.9 110.7,94.9 108.9,96.3 109.6,98.5 107.8,97.1 105.9,98.5 106.7,96.3 104.8,94.9
			107.1,94.9 107.8,92.8 108.4,94.9 		"/>
		<polygon fill="#FFED00" points="108.4,69.6 110.7,69.6 108.9,71 109.6,73.1 107.8,71.8 105.9,73.1 106.7,71 104.8,69.6
			107.1,69.6 107.8,67.5 108.4,69.6 		"/>
		<polygon fill="#FFED00" points="113.8,75 116.1,75 114.2,76.3 114.9,78.5 113.1,77.2 111.3,78.5 112,76.3 110.2,75 112.4,75
			113.1,72.8 113.8,75 		"/>
		<polygon fill="#FFED00" points="113.8,89.6 116.1,89.6 114.2,91 114.9,93.2 113.1,91.8 111.3,93.2 112,91 110.2,89.6 112.4,89.6
			113.1,87.5 113.8,89.6 		"/>
		<polygon fill="#FFED00" points="115.8,82.2 118.1,82.2 116.2,83.6 117,85.7 115.1,84.4 113.3,85.7 114,83.6 112.2,82.2
			114.4,82.2 115.1,80 115.8,82.2 		"/>
		<polygon fill="#FFED00" points="93.8,69.6 96,69.6 94.2,71 94.9,73.2 93.1,71.8 91.3,73.2 92,71 90.1,69.6 92.4,69.6 93.1,67.5
			93.8,69.6 		"/>
		<polygon fill="#FFED00" points="88.5,75 90.8,75 89,76.3 89.7,78.5 87.9,77.2 86,78.5 86.8,76.3 84.9,75 87.2,75 87.9,72.8
			88.5,75 		"/>
		<polygon fill="#FFED00" points="86.6,82.2 88.9,82.2 87.1,83.6 87.8,85.8 85.9,84.4 84.1,85.8 84.8,83.6 83,82.2 85.3,82.2
			85.9,80.1 86.6,82.2 		"/>
		<polygon fill="#FFED00" points="88.5,89.6 90.8,89.6 89,91 89.7,93.2 87.9,91.9 86,93.2 86.8,91 84.9,89.6 87.2,89.6 87.9,87.5
			88.5,89.6 		"/>
		<polygon fill="#FFED00" points="93.8,94.9 96.1,94.9 94.3,96.3 95,98.5 93.2,97.1 91.3,98.5 92.1,96.3 90.2,94.9 92.5,94.9
			93.2,92.8 93.8,94.9 		"/>
	</g>
	<polygon fill="#164194" points="67.7,135.9 133.2,135.9 133.2,132.1 67.7,132.1 67.7,135.9 	"/>
	<path fill="#C6C6C6" d="M142.5,30.7c0,0,13.6,21.3,16.1,25.2c2.5,3.9,5.3,7,15.4,9.1c10.1,2.1,14.5,3.1,14.5,3.1v0.8
		c0,0-6.4-1.3-14.7-3.1c-8.3-1.8-11.6-2.4-15.4-7.5c-3.1-4.3-16-22.4-16-22.4V30.7z"/>
	<path fill="#C6C6C6" d="M142.5,36.7c0,0,14.1,20.2,16,22.7c1.9,2.5,4.4,6.5,15.5,8.8c2.9,0.6,14.6,2.9,14.6,2.9v0.6
		c0,0-8.9-1.7-14.6-2.9c-5.7-1.2-11.7-2.3-15.5-7.1c-3.5-4.4-16-20.5-16-20.5L142.5,36.7z"/>
	<path fill="#C6C6C6" d="M142.5,42.8c0,0,13.3,17.2,16,20.6c2.7,3.4,6.4,6.3,15.5,8c5.3,1,14.6,2.7,14.6,2.7v0.6
		c0,0-8.1-1.5-14.6-2.7c-6.4-1.2-11.7-2.3-15.5-6.5c-3.3-3.7-16-18.5-16-18.5L142.5,42.8z"/>
	<path fill="#C6C6C6" d="M142.4,48.7c0,0,13.5,15.6,16,18.4c4,4.3,6,5.8,15.5,7.6c3.8,0.7,14.6,2.6,14.6,2.6V78
		c0,0-8.9-1.6-14.6-2.6c-5.7-1-10.4-1.4-15.5-6.3c-3.9-3.7-16-16.4-16-16.4L142.4,48.7z"/>
	<path fill="#C6C6C6" d="M142.5,54.9c0,0,12.4,12.8,16,16.4c3.8,3.9,8.7,5.3,15.5,6.5c6.5,1.1,14.6,2.4,14.6,2.4V81
		c0,0-7.6-1.2-14.6-2.4c-6.8-1.1-11.6-1.8-15.5-5.3c-3.5-3.2-16-14.6-16-14.6V54.9z"/>
	<path fill="#C6C6C6" d="M142.5,60.7c0,0,11.8,10.8,16,14.4c3.9,3.4,7,4.4,15.5,5.9c8.5,1.5,14.6,2.4,14.6,2.4v0.8
		c0,0-7.7-1.2-14.6-2.3c-6.9-1.1-11.3-1.5-15.5-4.8c-4.8-3.8-16-12.9-16-12.9V60.7z"/>
	<path fill="#C6C6C6" d="M142.4,66.8c0,0,13.5,10.5,16,12.3c2.5,1.8,5.9,4,15.5,5.4c9.6,1.4,14.5,2,14.5,2v0.8c0,0-8.7-1.2-14.5-2
		c-5.8-0.7-10.3-1-15.5-4.4c-5.1-3.3-16-10.9-16-10.9L142.4,66.8z"/>
	<path fill="#C6C6C6" d="M142.4,72.7c0,0,13.5,8.8,16.1,10.2c2.6,1.4,5.6,3.7,15.5,4.9c9.9,1.2,14.5,1.8,14.5,1.8v0.8
		c0,0-8.2-0.9-14.6-1.6c-6.4-0.7-10.7-1.6-15.5-4.2c-4.8-2.6-16-9-16-9L142.4,72.7z"/>
	<path fill="#C6C6C6" d="M142.5,78.6c0,0,12,6.4,16,8.4c4.5,2.2,8.4,3.3,15.5,4.1c7,0.8,14.6,1.6,14.6,1.6v0.7c0,0-7-0.7-14.6-1.4
		c-7.5-0.7-10.1-1-15.5-3.4c-4.8-2.1-16-7.2-16-7.2L142.5,78.6z"/>
	<path fill="#C6C6C6" d="M142.5,84.6c0,0,9.4,4,16.1,6.5c6.5,2.5,11.5,2.8,15.5,3.2c1.7,0.2,14.5,1.5,14.5,1.5v0.7
		c0,0-7.6-0.6-14.5-1.2c-6.9-0.6-9.9-0.9-15.5-2.7c-5.7-1.8-16-5.4-16-5.4L142.5,84.6z"/>
	<path fill="#C6C6C6" d="M142.5,90.7c0,0,9.5,2.9,16.1,4.6c6.5,1.7,12.5,2.4,15.5,2.6c3,0.2,14.5,1.1,14.5,1.1v0.7
		c0,0-6.5-0.4-14.5-1c-6.5-0.5-11.7-0.9-15.5-1.8c-4.2-0.9-16-3.7-16-3.7L142.5,90.7z"/>
	<path fill="#C6C6C6" d="M142.4,96.7c0,0,7.8,1.3,16.1,2.7c6.2,1,14.6,1.6,15.5,1.7c0.9,0,14.6,1,14.6,1v0.7c0,0-8.7-0.4-14.6-0.8
		c-6.1-0.3-12.1-0.7-15.5-1c-7.7-0.8-16-1.8-16-1.8V96.7z"/>
	<path fill="#C6C6C6" d="M142.5,102.9c0,0,12.3,0.5,16.1,0.5c3.7,0.1,30,1.1,30,1.1v0.7l-46.1,0V102.9z"/>
	<g>
		<path fill="#646363" d="M71.5,109.5c0-0.1,0.1-0.2,0.2-0.2h3.8c0.1,0,0.2,0.1,0.2,0.2v0.6c0,0.1-0.1,0.2-0.2,0.2h-2.8v1.8h2.5
			c0.1,0,0.2,0.1,0.2,0.2v0.6c0,0.1-0.1,0.2-0.2,0.2h-2.5v2h2.9c0.1,0,0.2,0.1,0.2,0.2v0.6c0,0.1-0.1,0.2-0.2,0.2h-3.9
			c-0.1,0-0.2-0.1-0.2-0.2V109.5z"/>
		<path fill="#646363" d="M80.6,116.2h-0.7c-0.2,0-0.2-0.1-0.2-0.2v-0.3l0,0c-0.4,0.3-1.1,0.6-1.7,0.6c-1.4,0-1.5-0.8-1.5-1.9v-3
			c0-0.1,0.1-0.2,0.2-0.2h0.8c0.1,0,0.2,0.1,0.2,0.2v2.9c0,0.6,0.1,1,0.8,1c0.4,0,1.1-0.3,1.4-0.5v-3.4c0-0.1,0-0.2,0.2-0.2h0.7
			c0.1,0,0.2,0.1,0.2,0.2v4.7C80.8,116.1,80.7,116.2,80.6,116.2z"/>
		<path fill="#646363" d="M82.8,116c0,0.1-0.1,0.2-0.2,0.2h-0.7c-0.1,0-0.2-0.1-0.2-0.2v-4.7c0-0.1,0.1-0.2,0.2-0.2h0.7
			c0.2,0,0.2,0.1,0.2,0.2v0.5l0,0c0.3-0.3,1-0.6,1.5-0.7c0.1,0,0.2,0,0.2,0.2l0.1,0.7c0,0.1,0,0.2-0.2,0.2c-0.6,0.1-1.3,0.3-1.7,0.5
			V116z"/>
		<path fill="#646363" d="M87.1,116.3c-2.1,0-2.2-1.5-2.2-2.7c0-1,0.2-2.6,2.2-2.6c2,0,2.3,1.3,2.3,2.6
			C89.4,114.7,89.2,116.3,87.1,116.3z M87.1,112c-0.9,0-1.1,0.6-1.1,1.6c0,1.1,0.2,1.6,1.1,1.6c0.9,0,1.1-0.5,1.1-1.6
			C88.2,112.5,88,112,87.1,112z"/>
		<path fill="#646363" d="M92.4,116.3c-0.3,0-0.8-0.1-1.3-0.2l0,0v1.8c0,0.1,0,0.2-0.2,0.2h-0.7c-0.2,0-0.2-0.1-0.2-0.2v-6.5
			c0-0.1,0.1-0.2,0.2-0.2h0.7c0.1,0,0.2,0.1,0.2,0.2v0.3l0,0c0.4-0.3,1-0.6,1.6-0.6c1.4,0,1.7,1,1.7,2.6
			C94.4,115.3,94,116.3,92.4,116.3z M92.5,112.1c-0.4,0-1.1,0.3-1.4,0.5v2.6c0.5,0.1,0.8,0.2,1.2,0.2c0.7,0,1-0.4,1-1.7
			C93.3,112.3,93,112.1,92.5,112.1z"/>
		<path fill="#646363" d="M96.2,114c0,1,0.4,1.3,1.2,1.3c0.4,0,1-0.1,1.3-0.1c0.2,0,0.2,0,0.3,0.2l0.1,0.3c0,0.2,0,0.2-0.2,0.3
			c-0.4,0.2-1.2,0.3-1.7,0.3c-2,0-2.3-1.3-2.3-2.6c0-1,0.2-2.7,2.2-2.7c1.8,0,2.2,1.2,2.2,2.3c0,0.4-0.1,0.6-0.5,0.6H96.2z
			 M96.2,113.2h2c0-0.6-0.2-1.2-1-1.2C96.5,111.9,96.3,112.4,96.2,113.2z"/>
		<path fill="#646363" d="M103.2,115.6c-0.5,0.4-1.2,0.7-1.9,0.7c-1.1,0-1.4-0.6-1.4-1.5c0-1.2,0.6-1.7,1.9-1.7h1.3v-0.3
			c0-0.6-0.2-0.8-1.1-0.8c-0.3,0-1,0.1-1.4,0.1c-0.2,0-0.3,0-0.3-0.1l-0.1-0.4c0-0.1,0-0.2,0.2-0.3c0.4-0.2,1.3-0.2,1.7-0.2
			c1.8,0,2,0.7,2,1.9v2c0,0.4,0.1,0.4,0.4,0.5c0.2,0,0.2,0,0.2,0.2v0.4c0,0.1-0.1,0.2-0.2,0.2c-0.2,0-0.3,0.1-0.5,0.1
			C103.6,116.2,103.3,116.1,103.2,115.6L103.2,115.6z M103.1,113.9h-1.3c-0.5,0-0.8,0.2-0.8,0.9c0,0.5,0.2,0.6,0.6,0.6
			c0.4,0,1.1-0.3,1.5-0.5V113.9z"/>
		<path fill="#646363" d="M109.3,116.2h-0.7c-0.1,0-0.2-0.1-0.2-0.2l0-2.9c0-0.6-0.1-1-0.7-1c-0.4,0-1.1,0.3-1.4,0.5v3.4
			c0,0.1-0.1,0.2-0.2,0.2h-0.7c-0.1,0-0.2-0.1-0.2-0.2v-4.7c0-0.1,0.1-0.2,0.2-0.2h0.7c0.1,0,0.2,0.1,0.2,0.2v0.3c0,0,0,0,0,0
			c0.4-0.3,1.1-0.6,1.7-0.6c1.4,0,1.5,0.9,1.5,2v3C109.5,116.1,109.5,116.2,109.3,116.2z"/>
		<path fill="#646363" d="M74.2,120.1c0.5,0,1.3,0.1,1.9,0.3c0.2,0.1,0.2,0.2,0.2,0.3l-0.1,0.4c0,0.1-0.1,0.2-0.3,0.2
			c-0.5-0.1-1.1-0.1-1.7-0.1c-1.4,0-1.6,1.1-1.6,2.5c0,1.4,0.3,2.4,1.6,2.4c0.6,0,1.1-0.1,1.7-0.1c0.2,0,0.2,0,0.3,0.2l0.1,0.4
			c0,0.2,0,0.3-0.2,0.3c-0.5,0.2-1.4,0.3-1.9,0.3c-2.3,0-2.8-1.7-2.8-3.5C71.4,121.9,71.9,120.1,74.2,120.1z"/>
		<path fill="#646363" d="M78.6,127.2c-2.1,0-2.2-1.5-2.2-2.7c0-1,0.2-2.6,2.2-2.6c2,0,2.3,1.3,2.3,2.6
			C80.9,125.6,80.8,127.2,78.6,127.2z M78.6,122.9c-0.9,0-1.1,0.6-1.1,1.6c0,1.1,0.2,1.6,1.1,1.6c0.9,0,1.1-0.5,1.1-1.6
			C79.7,123.4,79.6,122.9,78.6,122.9z"/>
		<path fill="#646363" d="M88.7,127.1H88c-0.1,0-0.2-0.1-0.2-0.2v-2.9c0-0.8-0.2-1-0.7-1c-0.4,0-1,0.3-1.3,0.5c0,0.1,0,0.3,0,0.5
			v2.9c0,0.1,0,0.2-0.2,0.2h-0.8c-0.1,0-0.2-0.1-0.2-0.2v-3c0-0.6-0.2-0.9-0.7-0.9c-0.4,0-0.9,0.3-1.3,0.5v3.4
			c0,0.1-0.1,0.2-0.2,0.2h-0.7c-0.1,0-0.2-0.1-0.2-0.2v-4.7c0-0.1,0.1-0.2,0.2-0.2h0.7c0.2,0,0.2,0.1,0.2,0.2v0.3l0,0
			c0.4-0.3,1-0.6,1.5-0.6c0.6,0,1.1,0.1,1.4,0.7c0.5-0.4,1.2-0.7,1.8-0.7c1.4,0,1.5,0.9,1.5,1.9v3C88.9,127,88.9,127.1,88.7,127.1z"
			/>
		<path fill="#646363" d="M96.8,127.1h-0.7c-0.1,0-0.2-0.1-0.2-0.2v-2.9c0-0.8-0.2-1-0.7-1c-0.4,0-1,0.3-1.3,0.5c0,0.1,0,0.3,0,0.5
			v2.9c0,0.1,0,0.2-0.2,0.2h-0.8c-0.1,0-0.2-0.1-0.2-0.2v-3c0-0.6-0.2-0.9-0.7-0.9c-0.4,0-0.9,0.3-1.3,0.5v3.4
			c0,0.1-0.1,0.2-0.2,0.2h-0.7c-0.1,0-0.2-0.1-0.2-0.2v-4.7c0-0.1,0.1-0.2,0.2-0.2h0.7c0.2,0,0.2,0.1,0.2,0.2v0.3l0,0
			c0.4-0.3,1-0.6,1.5-0.6c0.6,0,1.1,0.1,1.4,0.7c0.5-0.4,1.2-0.7,1.8-0.7c1.4,0,1.5,0.9,1.5,1.9v3C97,127,96.9,127.1,96.8,127.1z"/>
		<path fill="#646363" d="M98.4,121.3c-0.5,0-0.6-0.3-0.6-0.6c0-0.3,0.1-0.6,0.6-0.6c0.5,0,0.6,0.2,0.6,0.6
			C99,121,98.9,121.3,98.4,121.3z M99,126.9c0,0.1,0,0.2-0.2,0.2H98c-0.1,0-0.2-0.1-0.2-0.2v-4.7c0-0.1,0.1-0.2,0.2-0.2h0.7
			c0.1,0,0.2,0.1,0.2,0.2V126.9z"/>
		<path fill="#646363" d="M101.5,127.2c-0.5,0-1.2-0.1-1.6-0.2c-0.2-0.1-0.2-0.2-0.2-0.3l0.1-0.3c0-0.2,0.1-0.2,0.3-0.2
			c0.5,0.1,1.1,0.1,1.5,0.1c0.7,0,0.9-0.2,0.9-0.6c0-0.5-0.2-0.6-0.8-0.7c-1-0.1-1.9-0.4-1.9-1.5c0-1,0.8-1.6,1.9-1.6
			c0.4,0,1.1,0.1,1.6,0.2c0.2,0.1,0.2,0.2,0.2,0.3l-0.1,0.4c0,0.1-0.1,0.2-0.3,0.1c-0.4-0.1-1-0.1-1.4-0.1c-0.7,0-0.8,0.2-0.8,0.6
			c0,0.4,0.2,0.5,0.9,0.6c1,0.1,1.9,0.3,1.9,1.6C103.6,126.8,102.6,127.2,101.5,127.2z"/>
		<path fill="#646363" d="M105.8,127.2c-0.5,0-1.2-0.1-1.6-0.2c-0.2-0.1-0.2-0.2-0.2-0.3l0.1-0.3c0-0.2,0.1-0.2,0.3-0.2
			c0.5,0.1,1.1,0.1,1.5,0.1c0.7,0,0.9-0.2,0.9-0.6c0-0.5-0.2-0.6-0.8-0.7c-1-0.1-1.9-0.4-1.9-1.5c0-1,0.8-1.6,1.9-1.6
			c0.4,0,1.1,0.1,1.6,0.2c0.2,0.1,0.2,0.2,0.2,0.3l-0.1,0.4c0,0.1-0.1,0.2-0.3,0.1c-0.4-0.1-1-0.1-1.4-0.1c-0.7,0-0.8,0.2-0.8,0.6
			c0,0.4,0.2,0.5,0.9,0.6c1,0.1,1.9,0.3,1.9,1.6C107.9,126.8,106.9,127.2,105.8,127.2z"/>
		<path fill="#646363" d="M109.2,121.3c-0.5,0-0.6-0.3-0.6-0.6c0-0.3,0.1-0.6,0.6-0.6c0.5,0,0.6,0.2,0.6,0.6
			C109.8,121,109.7,121.3,109.2,121.3z M109.7,126.9c0,0.1,0,0.2-0.2,0.2h-0.7c-0.1,0-0.2-0.1-0.2-0.2v-4.7c0-0.1,0.1-0.2,0.2-0.2
			h0.7c0.1,0,0.2,0.1,0.2,0.2V126.9z"/>
		<path fill="#646363" d="M112.7,127.2c-2.1,0-2.2-1.5-2.2-2.7c0-1,0.2-2.6,2.2-2.6c2,0,2.3,1.3,2.3,2.6
			C115,125.6,114.9,127.2,112.7,127.2z M112.7,122.9c-0.9,0-1.1,0.6-1.1,1.6c0,1.1,0.2,1.6,1.1,1.6c0.9,0,1.1-0.5,1.1-1.6
			C113.8,123.4,113.7,122.9,112.7,122.9z"/>
		<path fill="#646363" d="M119.8,127.1H119c-0.1,0-0.2-0.1-0.2-0.2l0-2.9c0-0.6-0.1-1-0.7-1c-0.4,0-1.1,0.3-1.4,0.5v3.4
			c0,0.1-0.1,0.2-0.2,0.2h-0.7c-0.1,0-0.2-0.1-0.2-0.2v-4.7c0-0.1,0.1-0.2,0.2-0.2h0.7c0.1,0,0.2,0.1,0.2,0.2v0.3c0,0,0,0,0,0
			c0.4-0.3,1.1-0.6,1.7-0.6c1.4,0,1.5,0.9,1.5,2v3C120,127,119.9,127.1,119.8,127.1z"/>
	</g>
</g>
</svg>
