<?xml version="1.0" encoding="UTF-8" standalone="no"?><!DOCTYPE svg PUBLIC "-//W3C//DTD SVG 1.1//EN" "http://www.w3.org/Graphics/SVG/1.1/DTD/svg11.dtd"><svg width="100%" height="100%" viewBox="0 0 314 112" version="1.1" xmlns="http://www.w3.org/2000/svg" xmlns:xlink="http://www.w3.org/1999/xlink" xml:space="preserve" xmlns:serif="http://www.serif.com/" style="fill-rule:evenodd;clip-rule:evenodd;stroke-linejoin:round;stroke-miterlimit:1.41421;"><path d="M22.6,22.8l-15.9,60.7l297.4,23.7l-15,-96.7l-266.5,12.3Z" style="fill:#00aeef;fill-rule:nonzero;"/><g><path d="M74.762,66.439l0,-22.495l5.599,0c1.933,0 3.558,0.275 4.874,0.825c1.317,0.549 2.375,1.341 3.175,2.374c0.799,1.033 1.374,2.275 1.724,3.724c0.35,1.45 0.525,3.075 0.525,4.874c0,1.967 -0.25,3.633 -0.75,4.999c-0.5,1.367 -1.166,2.475 -1.999,3.325c-0.833,0.849 -1.783,1.458 -2.85,1.824c-1.066,0.367 -2.166,0.55 -3.299,0.55l-6.999,0Zm-7.848,-29.094l0,35.693l15.397,0c2.733,0 5.107,-0.459 7.123,-1.375c2.017,-0.916 3.7,-2.175 5.049,-3.774c1.35,-1.6 2.358,-3.5 3.025,-5.699c0.666,-2.2 1,-4.599 1,-7.199c0,-2.966 -0.409,-5.548 -1.225,-7.748c-0.817,-2.2 -1.95,-4.032 -3.399,-5.499c-1.45,-1.466 -3.166,-2.566 -5.149,-3.299c-1.983,-0.733 -4.125,-1.1 -6.424,-1.1l-15.397,0Z" style="fill:#fff;fill-rule:nonzero;"/><rect x="103.956" y="37.345" width="7.848" height="35.693" style="fill:#fff;fill-rule:nonzero;"/><path d="M144.498,68.989l0.8,4.049l4.999,0l0,-19.296l-14.997,0l0,5.848l7.898,0c-0.233,2.5 -1.058,4.408 -2.474,5.724c-1.416,1.317 -3.424,1.975 -6.024,1.975c-1.766,0 -3.266,-0.342 -4.499,-1.025c-1.233,-0.683 -2.233,-1.591 -2.999,-2.724c-0.767,-1.133 -1.325,-2.408 -1.675,-3.825c-0.35,-1.416 -0.525,-2.874 -0.525,-4.374c0,-1.566 0.175,-3.082 0.525,-4.549c0.35,-1.466 0.908,-2.774 1.675,-3.924c0.766,-1.15 1.766,-2.066 2.999,-2.749c1.233,-0.684 2.733,-1.025 4.499,-1.025c1.9,0 3.516,0.5 4.849,1.5c1.333,0.999 2.233,2.499 2.7,4.499l7.498,0c-0.2,-2.033 -0.75,-3.833 -1.65,-5.399c-0.899,-1.567 -2.041,-2.883 -3.424,-3.949c-1.383,-1.067 -2.933,-1.875 -4.649,-2.425c-1.716,-0.55 -3.491,-0.825 -5.324,-0.825c-2.733,0 -5.19,0.483 -7.373,1.45c-2.183,0.966 -4.025,2.299 -5.524,3.999c-1.5,1.7 -2.65,3.691 -3.45,5.974c-0.799,2.283 -1.199,4.757 -1.199,7.423c0,2.6 0.4,5.024 1.199,7.274c0.8,2.249 1.95,4.207 3.45,5.874c1.499,1.666 3.341,2.974 5.524,3.924c2.183,0.95 4.64,1.425 7.373,1.425c1.733,0 3.449,-0.359 5.149,-1.075c1.7,-0.717 3.249,-1.975 4.649,-3.774Z" style="fill:#fff;fill-rule:nonzero;"/><rect x="156.646" y="37.345" width="7.848" height="35.693" style="fill:#fff;fill-rule:nonzero;"/><path d="M179.291,43.944l0,29.094l7.848,0l0,-29.094l10.698,0l0,-6.599l-29.244,0l0,6.599l10.698,0Z" style="fill:#fff;fill-rule:nonzero;"/><path d="M201.936,37.345l0,35.693l27.095,0l0,-6.599l-19.246,0l0,-8.748l17.296,0l0,-6.099l-17.296,0l0,-7.648l18.846,0l0,-6.599l-26.695,0Z" style="fill:#fff;fill-rule:nonzero;"/></g><path d="M258.122,49.343l7.599,0c-0.234,-2.067 -0.8,-3.9 -1.7,-5.499c-0.9,-1.6 -2.041,-2.941 -3.424,-4.024c-1.383,-1.084 -2.95,-1.908 -4.699,-2.475c-1.75,-0.566 -3.608,-0.85 -5.574,-0.85c-2.733,0 -5.191,0.483 -7.374,1.45c-2.182,0.966 -4.024,2.299 -5.523,3.999c-1.5,1.7 -2.65,3.691 -3.45,5.974c-0.8,2.283 -1.199,4.757 -1.199,7.423c0,2.6 0.399,5.024 1.199,7.274c0.8,2.249 1.95,4.207 3.45,5.874c1.499,1.666 3.341,2.974 5.523,3.924c2.183,0.95 4.641,1.425 7.374,1.425c2.199,0 4.216,-0.334 6.049,-1c1.833,-0.667 3.432,-1.633 4.799,-2.9c1.366,-1.266 2.466,-2.799 3.299,-4.599c0.833,-1.799 1.35,-3.816 1.55,-6.048l-7.599,0c-0.3,2.399 -1.125,4.332 -2.474,5.798c-1.35,1.467 -3.225,2.2 -5.624,2.2c-1.766,0 -3.266,-0.342 -4.499,-1.025c-1.233,-0.683 -2.233,-1.591 -3,-2.724c-0.766,-1.133 -1.324,-2.408 -1.674,-3.825c-0.35,-1.416 -0.525,-2.874 -0.525,-4.374c0,-1.566 0.175,-3.082 0.525,-4.549c0.35,-1.466 0.908,-2.774 1.674,-3.924c0.767,-1.15 1.767,-2.066 3,-2.749c1.233,-0.684 2.733,-1.025 4.499,-1.025c0.966,0 1.891,0.158 2.774,0.475c0.883,0.316 1.675,0.758 2.375,1.324c0.7,0.567 1.283,1.225 1.749,1.975c0.467,0.75 0.767,1.575 0.9,2.475Z" style="fill:#fff;fill-rule:nonzero;"/><path id="SVGID_x5F_1_x5F_" d="M56.5,29.2l0,49.1" style="fill:none;"/></svg>