<?xml version="1.0" encoding="utf-8"?>
<!-- Generator: Adobe Illustrator 18.1.1, SVG Export Plug-In . SVG Version: 6.00 Build 0)  -->
<svg version="1.1" id="Layer_1" xmlns="http://www.w3.org/2000/svg" xmlns:xlink="http://www.w3.org/1999/xlink" x="0px" y="0px"
	 viewBox="0 0 313.9 112" enable-background="new 0 0 313.9 112" xml:space="preserve">
<g>
	<path fill="#D7DF23" d="M272.2,43.4h-8.6v10h8.6c1.8,0,3.1-0.4,4-1.2c0.9-0.8,1.3-2.1,1.3-3.9c0-1.7-0.5-3-1.3-3.8
		C275.4,43.8,274,43.4,272.2,43.4z"/>
	<path fill="#D7DF23" d="M46.9,43.4h-8.6v10h8.6c1.8,0,3.1-0.4,4-1.2c0.9-0.8,1.3-2.1,1.3-3.9c0-1.7-0.5-3-1.3-3.8
		C50.1,43.8,48.7,43.4,46.9,43.4z"/>
	<path fill="#D7DF23" d="M297,10.5L17.8,22.8L2,83.5l309.9,23.7L297,10.5z M53.4,73c-0.4-1.1-0.7-2.5-0.8-4
		c-0.1-1.6-0.2-3.1-0.5-4.5c-0.3-1.9-0.8-3.2-1.7-4.1c-0.9-0.9-2.3-1.3-4.2-1.3h-7.8V73h-7.8V37.3h19.2c1.6,0,3,0.3,4.3,0.8
		c1.3,0.5,2.4,1.2,3.3,2.1c0.9,0.9,1.6,1.9,2.1,3.1c0.5,1.2,0.7,2.5,0.7,3.8c0,2.1-0.4,3.9-1.3,5.4c-0.9,1.5-2.3,2.7-4.3,3.5v0.1
		c1,0.3,1.8,0.7,2.4,1.2s1.2,1.2,1.5,1.9c0.4,0.7,0.7,1.6,0.9,2.5c0.2,0.9,0.3,1.8,0.4,2.7c0,0.6,0.1,1.2,0.1,2
		c0,0.8,0.1,1.5,0.2,2.3s0.2,1.6,0.4,2.3c0.2,0.7,0.5,1.3,0.8,1.8H53.4z M94.9,73H67.8V37.3h26.7v6.6H75.7v7.6H93v6.1H75.7v8.7h19.2
		V73z M133.1,73h-5l-0.8-4c-1.4,1.8-2.9,3.1-4.6,3.8c-1.7,0.7-3.4,1.1-5.1,1.1c-2.7,0-5.2-0.5-7.4-1.4s-4-2.3-5.5-3.9
		s-2.6-3.6-3.4-5.9s-1.2-4.7-1.2-7.3c0-2.7,0.4-5.1,1.2-7.4s1.9-4.3,3.4-6s3.3-3,5.5-4c2.2-1,4.6-1.4,7.4-1.4c1.8,0,3.6,0.3,5.3,0.8
		s3.3,1.4,4.6,2.4c1.4,1.1,2.5,2.4,3.4,3.9c0.9,1.6,1.5,3.4,1.7,5.4H125c-0.5-2-1.4-3.5-2.7-4.5c-1.3-1-2.9-1.5-4.8-1.5
		c-1.8,0-3.3,0.3-4.5,1c-1.2,0.7-2.2,1.6-3,2.7c-0.8,1.1-1.3,2.5-1.7,3.9c-0.3,1.5-0.5,3-0.5,4.5c0,1.5,0.2,3,0.5,4.4
		c0.4,1.4,0.9,2.7,1.7,3.8c0.8,1.1,1.8,2,3,2.7c1.2,0.7,2.7,1,4.5,1c2.6,0,4.6-0.7,6-2c1.4-1.3,2.2-3.2,2.5-5.7h-7.9v-5.8h15V73z
		 M148.5,73h-7.8V37.3h7.8V73z M183.5,67c-0.6,1.4-1.6,2.6-2.8,3.6c-1.2,1-2.8,1.8-4.6,2.4c-1.8,0.6-4,0.8-6.4,0.8
		c-2,0-3.9-0.2-5.7-0.7c-1.8-0.5-3.5-1.2-4.9-2.3c-1.4-1-2.5-2.3-3.4-3.9c-0.8-1.6-1.2-3.5-1.2-5.7h7.6c0,1.2,0.2,2.2,0.7,3
		c0.4,0.8,1,1.5,1.7,2c0.7,0.5,1.6,0.9,2.5,1.1c1,0.2,2,0.4,3,0.4c0.7,0,1.5-0.1,2.2-0.2c0.8-0.1,1.5-0.3,2.2-0.7
		c0.7-0.3,1.3-0.8,1.8-1.4c0.5-0.6,0.7-1.3,0.7-2.2c0-1-0.3-1.7-0.9-2.3c-0.6-0.6-1.4-1.1-2.4-1.5s-2.1-0.7-3.4-1
		c-1.3-0.3-2.5-0.6-3.8-1c-1.3-0.3-2.6-0.7-3.9-1.2c-1.3-0.5-2.4-1.1-3.4-1.9c-1-0.8-1.8-1.7-2.4-2.9c-0.6-1.1-0.9-2.5-0.9-4.2
		c0-1.8,0.4-3.4,1.2-4.8c0.8-1.4,1.8-2.5,3.1-3.4s2.7-1.6,4.3-2c1.6-0.4,3.2-0.6,4.8-0.6c1.9,0,3.7,0.2,5.4,0.6
		c1.7,0.4,3.2,1.1,4.6,2c1.3,0.9,2.4,2.1,3.2,3.6c0.8,1.4,1.2,3.2,1.2,5.3h-7.6c-0.1-1.1-0.3-1.9-0.7-2.6c-0.4-0.7-0.9-1.2-1.5-1.6
		c-0.6-0.4-1.4-0.7-2.2-0.9c-0.8-0.2-1.7-0.2-2.7-0.2c-0.6,0-1.3,0.1-1.9,0.2c-0.6,0.1-1.2,0.4-1.7,0.7c-0.5,0.3-0.9,0.8-1.3,1.2
		c-0.3,0.5-0.5,1.1-0.5,1.9c0,0.7,0.1,1.3,0.4,1.7c0.3,0.4,0.8,0.8,1.6,1.2c0.8,0.4,1.9,0.7,3.2,1.1c1.4,0.4,3.2,0.8,5.4,1.4
		c0.7,0.1,1.6,0.4,2.8,0.7c1.2,0.4,2.4,0.9,3.5,1.7c1.2,0.8,2.2,1.8,3,3.1c0.8,1.3,1.3,2.9,1.3,4.9C184.4,64.1,184.1,65.6,183.5,67z
		 M216.8,43.9h-10.7V73h-7.8V43.9h-10.7v-6.6h29.2V43.9z M249.2,73h-27.1V37.3h26.7v6.6H230v7.6h17.3v6.1H230v8.7h19.2V73z
		 M278.7,73c-0.4-1.1-0.7-2.5-0.8-4c-0.1-1.6-0.2-3.1-0.5-4.5c-0.3-1.9-0.8-3.2-1.7-4.1c-0.9-0.9-2.3-1.3-4.2-1.3h-7.8V73h-7.8V37.3
		H275c1.6,0,3,0.3,4.3,0.8c1.3,0.5,2.4,1.2,3.3,2.1c0.9,0.9,1.6,1.9,2.1,3.1c0.5,1.2,0.7,2.5,0.7,3.8c0,2.1-0.4,3.9-1.3,5.4
		c-0.9,1.5-2.3,2.7-4.3,3.5v0.1c1,0.3,1.8,0.7,2.4,1.2s1.2,1.2,1.5,1.9c0.4,0.7,0.7,1.6,0.9,2.5c0.2,0.9,0.3,1.8,0.4,2.7
		c0,0.6,0.1,1.2,0.1,2c0,0.8,0.1,1.5,0.2,2.3s0.2,1.6,0.4,2.3c0.2,0.7,0.5,1.3,0.8,1.8H278.7z"/>
</g>
</svg>
